<svg xmlns="http://www.w3.org/2000/svg" width="23" height="23" viewBox="0 0 23 23">
    <path fill="#fff" fill-rule="nonzero" d="M20.299 2.27c.007-.16-.11-.27-.27-.27h-3.82c-.167 0-.285.11-.27.27l-.484 7.221H14.27V6.204c.026-.083-.026-.173-.108-.216a.251.251 0 0 0-.269 0L8.781 9.006V6.204c.01-.082-.04-.17-.107-.216-.099-.051-.2-.052-.27 0L2.162 9.545c-.109.021-.161.11-.161.215v9.97c0 .15.12.27.27.27h18.836c.074 0 .145-.03.215-.108a.236.236 0 0 0 .054-.161L20.299 2.269zM8.25 15.654H4.5v-3.724h3.75v3.724zm5.625 0h-3.75v-3.724h3.75v3.724z"/>
</svg>
