<svg xmlns="http://www.w3.org/2000/svg" width="23" height="23" viewBox="0 0 23 23">
    <g fill="none" fill-rule="evenodd">
        <path fill="#fff" fill-rule="nonzero" d="M2.875 4.792v13.416c0 1.055.853 1.917 1.917 1.917h13.416a1.922 1.922 0 0 0 1.917-1.917V4.792a1.922 1.922 0 0 0-1.917-1.917H4.792a1.916 1.916 0 0 0-1.917 1.917zm11.5 3.833A2.871 2.871 0 0 1 11.5 11.5a2.871 2.871 0 0 1-2.875-2.875A2.871 2.871 0 0 1 11.5 5.75a2.871 2.871 0 0 1 2.875 2.875zM5.75 16.292c0-1.917 3.833-2.971 5.75-2.971 1.917 0 5.75 1.054 5.75 2.97v.959H5.75v-.958z"/>
        <path d="M0 0h23v23H0z"/>
    </g>
</svg>
