<svg xmlns="http://www.w3.org/2000/svg" xmlns:xlink="http://www.w3.org/1999/xlink" width="23" height="23" viewBox="0 0 23 23">
    <defs>
        <path id="a" d="M0 0h23v23H0z"/>
    </defs>
    <g fill="none" fill-rule="evenodd">
        <mask id="b" fill="#fff">
            <use xlink:href="#a"/>
        </mask>
        <path fill="#fff" fill-rule="nonzero" d="M18.469 12.394c.037-.292.065-.584.065-.894 0-.31-.028-.602-.065-.894l1.978-1.505a.452.452 0 0 0 .113-.583l-1.875-3.156a.478.478 0 0 0-.572-.2l-2.335.911a6.9 6.9 0 0 0-1.585-.894l-.356-2.417a.453.453 0 0 0-.46-.383h-3.75a.453.453 0 0 0-.46.383L8.811 5.18a7.255 7.255 0 0 0-1.585.894l-2.334-.912a.463.463 0 0 0-.572.2L2.444 8.519a.442.442 0 0 0 .113.583l1.978 1.505a7.04 7.04 0 0 0-.065.894c0 .301.028.602.065.894l-1.978 1.505a.452.452 0 0 0-.113.583l1.876 3.156c.112.2.365.274.572.2l2.334-.911a6.9 6.9 0 0 0 1.585.894l.356 2.417a.453.453 0 0 0 .46.383h3.75a.453.453 0 0 0 .46-.383l.356-2.417a7.255 7.255 0 0 0 1.585-.894l2.335.912c.215.082.459 0 .572-.2l1.875-3.157a.452.452 0 0 0-.113-.583l-1.978-1.505zm-6.967 2.298c-1.81 0-3.282-1.432-3.282-3.192 0-1.76 1.472-3.192 3.282-3.192s3.282 1.432 3.282 3.192c0 1.76-1.472 3.192-3.282 3.192z" mask="url(#b)"/>
    </g>
</svg>
