<svg xmlns="http://www.w3.org/2000/svg" width="23" height="23" viewBox="0 0 23 23">
    <g fill="none" fill-rule="evenodd">
        <path fill="#fff" fill-rule="nonzero" d="M1.917 15.333h14.375v2.875H1.917v-2.875zm17.729 0h1.437v2.875h-1.437v-2.875zm-2.396 0h1.438v2.875H17.25v-2.875zm.815-7.925c.594-.585.958-1.39.958-2.28a3.21 3.21 0 0 0-3.21-3.211v1.437c.977 0 1.772.796 1.772 1.773 0 .978-.795 1.773-1.773 1.773v1.438c2.147 0 3.834 1.753 3.834 3.9v2.137h1.437v-2.147a5.322 5.322 0 0 0-3.018-4.82zm-2.703 2.367h-1.466c-.978 0-1.773-.94-1.773-1.917 0-.977.795-1.677 1.773-1.677V4.744a3.21 3.21 0 0 0 0 6.42h1.466c1.006 0 1.888.71 1.888 1.965v1.246h1.438v-1.572c0-1.734-1.534-3.028-3.326-3.028z"/>
        <path d="M0 0h23v23H0z"/>
    </g>
</svg>
