<svg xmlns="http://www.w3.org/2000/svg" xmlns:xlink="http://www.w3.org/1999/xlink" width="23" height="23" viewBox="0 0 23 23">
    <defs>
        <path id="a" d="M0 0h20v20H0z"/>
    </defs>
    <g fill="none" fill-rule="evenodd" transform="translate(1 2)">
        <mask id="b" fill="#fff">
            <use xlink:href="#a"/>
        </mask>
        <path fill="#fff" fill-rule="nonzero" d="M19.167 4.583v12.084c0 1.833-1.5 3.333-3.334 3.333H9.75c-.9 0-1.75-.358-2.375-.992l-6.542-6.65s1.05-1.025 1.084-1.041a.987.987 0 0 1 .658-.242c.183 0 .35.05.5.133.033.009 3.592 2.05 3.592 2.05V3.333c0-.691.558-1.25 1.25-1.25.691 0 1.25.559 1.25 1.25v5.834H10V1.25C10 .558 10.558 0 11.25 0s1.25.558 1.25 1.25v7.917h.833V2.083c0-.691.559-1.25 1.25-1.25.692 0 1.25.559 1.25 1.25v7.084h.834V4.583c0-.691.558-1.25 1.25-1.25.691 0 1.25.559 1.25 1.25z" mask="url(#b)"/>
    </g>
</svg>
