<svg xmlns="http://www.w3.org/2000/svg" width="23" height="23" viewBox="0 0 23 23">
    <g fill="none" fill-rule="evenodd">
        <path d="M0 0h23v23H0z"/>
        <path fill="#fff" fill-rule="nonzero" d="M15.813 11.5a2.389 2.389 0 0 0 2.386-2.396 2.389 2.389 0 0 0-2.387-2.396 2.397 2.397 0 0 0 0 4.792zm-7.188-.958a2.863 2.863 0 0 0 2.865-2.875 2.863 2.863 0 0 0-2.865-2.875A2.871 2.871 0 0 0 5.75 7.667a2.871 2.871 0 0 0 2.875 2.875zm7.188 2.875c-1.754 0-5.271.881-5.271 2.635v2.156h10.541v-2.156c0-1.754-3.517-2.635-5.27-2.635zm-7.188-.959c-2.233 0-6.708 1.122-6.708 3.354v2.396h6.708v-2.156c0-.814.316-2.242 2.271-3.325-.834-.173-1.639-.269-2.271-.269z"/>
    </g>
</svg>
