<svg xmlns="http://www.w3.org/2000/svg" width="20" height="20" viewBox="0 0 20 20">
    <g fill="none" fill-rule="evenodd">
        <path fill="#21809E" d="M20 10c0 5.523-4.477 10-10 10-5.522 0-10-4.477-10-10S4.478 0 10 0c5.523 0 10 4.477 10 10"/>
        <g fill="#FEFEFE">
            <path d="M14.01 10.692l-3.34 3.34-2.228-2.227 3.34-3.34zM11.044 7.726l-.715-.716a1.44 1.44 0 0 0-2.03 0L6.99 8.322a1.44 1.44 0 0 0 0 2.03l.715.715 3.34-3.341z"/>
            <path d="M14.85 14.172l-.7.7-2.815-2.815.7-.7zM8.63 7.952l-.7.7-2.815-2.815.7-.7z"/>
        </g>
    </g>
</svg>
