<?xml version="1.0" encoding="UTF-8"?>
<svg width="20px" height="20px" viewBox="0 0 20 20" version="1.1" xmlns="http://www.w3.org/2000/svg" xmlns:xlink="http://www.w3.org/1999/xlink">
    <!-- Generator: Sketch 47.1 (45422) - http://www.bohemiancoding.com/sketch -->
    <title>param deviation </title>
    <desc>Created with Sketch.</desc>
    <defs></defs>
    <g id="Production-Floor-new-icons" stroke="none" stroke-width="1" fill="none" fill-rule="evenodd">
        <g id="New-Icons-20" transform="translate(-52.000000, -64.000000)">
            <g id="param-deviation-" transform="translate(52.000000, 64.000000)">
                <path d="M20,9.93377483 C20,15.4198959 15.5226952,19.8675497 10,19.8675497 C4.4773048,19.8675497 0,15.4198959 0,9.93377483 C0,4.44706971 4.4773048,0 10,0 C15.5226952,0 20,4.44706971 20,9.93377483" id="Fill-1" fill="#F5A623"></path>
                <path d="M11.3333333,13.9078918 C11.3333333,14.639343 10.7363275,15.2323951 10,15.2323951 C9.26306141,15.2323951 8.66666667,14.639343 8.66666667,13.9078918 C8.66666667,13.1758336 9.26306141,12.5827815 10,12.5827815 C10.7363275,12.5827815 11.3333333,13.1758336 11.3333333,13.9078918" id="Fill-4" fill="#FEFEFE"></path>
                <polygon id="Stroke-6" fill="#FEFEFE" fill-rule="nonzero" points="11.0666667 11.1258278 11.0666667 5.03311258 8.93333333 5.03311258 8.93333333 11.1258278"></polygon>
            </g>
        </g>
    </g>
</svg>