<svg xmlns="http://www.w3.org/2000/svg" width="20" height="20" viewBox="0 0 20 20">
    <g fill="none" fill-rule="evenodd">
        <path fill="#850F16" d="M20 10c0 5.523-4.477 10-10 10S0 15.523 0 10 4.477 0 10 0s10 4.477 10 10z"/>
        <path fill="#FEFEFE" d="M13.4 10.028a3.375 3.375 0 0 1-3.372 3.371 3.376 3.376 0 0 1-3.372-3.371 3.376 3.376 0 0 1 3.372-3.372 3.375 3.375 0 0 1 3.372 3.372zm1.376-.716a4.777 4.777 0 0 0-.885-2.134l.811-.812-1.012-1.013-.812.811a4.795 4.795 0 0 0-2.134-.885V4.133H9.312V5.28a4.795 4.795 0 0 0-2.135.885l-.811-.811-1.013 1.013.812.811a4.774 4.774 0 0 0-.885 2.135H4.133v1.432H5.28c.115.772.418 1.504.885 2.134l-.812.811 1.013 1.013.811-.811c.63.466 1.363.77 2.135.885v1.146h1.432v-1.146a4.788 4.788 0 0 0 2.134-.885l.812.811 1.012-1.013-.811-.811c.466-.63.77-1.362.885-2.134h1.146V9.312h-1.146z"/>
    </g>
</svg>
