<?xml version="1.0" encoding="UTF-8"?>
<svg width="20px" height="20px" viewBox="0 0 20 20" version="1.1" xmlns="http://www.w3.org/2000/svg" xmlns:xlink="http://www.w3.org/1999/xlink">
    <!-- Generator: Sketch 47.1 (45422) - http://www.bohemiancoding.com/sketch -->
    <title>stop idle</title>
    <desc>Created with Sketch.</desc>
    <defs></defs>
    <g id="Production-Floor-new-icons" stroke="none" stroke-width="1" fill="none" fill-rule="evenodd">
        <g id="New-Icons-20" transform="translate(-105.000000, -86.000000)">
            <g id="stop-idle" transform="translate(105.000000, 86.000000)">
                <path d="M20.0000571,9.93394513 C20.0000571,15.4200662 15.5227523,19.86772 10.0000571,19.86772 C4.47736194,19.86772 5.71428571e-05,15.4200662 5.71428571e-05,9.93394513 C5.71428571e-05,4.44724 4.47736194,0.000170293283 10.0000571,0.000170293283 C15.5227523,0.000170293283 20.0000571,4.44724 20.0000571,9.93394513" id="Fill-1" fill="#A6A8AB"></path>
                <path d="M9.71902857,14.0721854 C7.49045714,14.0721854 5.71902857,12.3124882 5.71902857,10.0986755 C5.71902857,7.88486282 7.49045714,6.12516556 9.71902857,6.12516556 C11.9470286,6.12516556 13.7190286,7.88486282 13.7190286,10.0986755 C13.7190286,12.3124882 11.9470286,14.0721854 9.71902857,14.0721854 L9.71902857,14.0721854 Z M13.7190286,6.91986755 L14.5761714,6.12516556 C14.2904571,5.84134342 14.0047429,5.55752129 13.7190286,5.33046358 L12.9190286,6.12516556 C12.0618857,5.44399243 10.9190286,4.98987701 9.71902857,4.98987701 C6.86188571,4.98987701 4.57617143,7.26045412 4.57617143,10.0986755 C4.57617143,12.9368969 6.86188571,15.207474 9.71902857,15.207474 C12.5761714,15.207474 14.8618857,12.9368969 14.8618857,10.0986755 C14.8618857,8.90662252 14.4618857,7.77133396 13.7190286,6.91986755 L13.7190286,6.91986755 Z M9.1476,10.6663198 L10.2904571,10.6663198 L10.2904571,7.26045412 L9.1476,7.26045412 L9.1476,10.6663198 Z M8.00474286,4.42223273 L11.4333143,4.42223273 L11.4333143,3.28694418 L8.00474286,3.28694418 L8.00474286,4.42223273 Z" id="Fill-4" fill="#FEFEFE"></path>
            </g>
        </g>
    </g>
</svg>