<svg xmlns="http://www.w3.org/2000/svg" width="40" height="40" viewBox="0 0 40 40">
    <g fill="none" fill-rule="evenodd">
        <path fill="#21809E" d="M40 20c0 11.047-8.954 20-20 20C8.957 40 0 31.047 0 20 0 8.955 8.956 0 20 0c11.046 0 20 8.955 20 20"/>
        <g fill="#FEFEFE">
            <path d="M28.02 21.383l-6.682 6.682-4.453-4.455 6.68-6.681zM22.088 15.452l-1.43-1.431a2.88 2.88 0 0 0-4.059 0l-2.623 2.623a2.88 2.88 0 0 0 0 4.059l1.431 1.43 6.681-6.681z"/>
            <path d="M29.699 28.344l-1.399 1.4-5.631-5.63 1.4-1.4zM17.26 15.904l-1.4 1.4-5.63-5.63 1.4-1.4z"/>
        </g>
    </g>
</svg>
