<?xml version="1.0" encoding="UTF-8"?>
<svg width="40px" height="40px" viewBox="0 0 40 40" version="1.1" xmlns="http://www.w3.org/2000/svg" xmlns:xlink="http://www.w3.org/1999/xlink">
    <!-- Generator: Sketch 47.1 (45422) - http://www.bohemiancoding.com/sketch -->
    <title>param deviation </title>
    <desc>Created with Sketch.</desc>
    <defs></defs>
    <g id="Production-Floor-new-icons" stroke="none" stroke-width="1" fill="none" fill-rule="evenodd">
        <g id="New-Icons-40" transform="translate(-25.000000, -65.000000)">
            <g id="param-deviation-" transform="translate(25.000000, 65.000000)">
                <path d="M40,19.8675497 C40,30.8397918 31.0453904,39.7350993 20,39.7350993 C8.9546096,39.7350993 0,30.8397918 0,19.8675497 C0,8.89413942 8.9546096,0 20,0 C31.0453904,0 40,8.89413942 40,19.8675497" id="Fill-1" fill="#F5A623"></path>
                <path d="M22.6666667,27.8157836 C22.6666667,29.2786859 21.4726551,30.4647902 20,30.4647902 C18.5261228,30.4647902 17.3333333,29.2786859 17.3333333,27.8157836 C17.3333333,26.3516672 18.5261228,25.1655629 20,25.1655629 C21.4726551,25.1655629 22.6666667,26.3516672 22.6666667,27.8157836" id="Fill-4" fill="#FEFEFE"></path>
                <polygon id="Stroke-6" fill="#FEFEFE" fill-rule="nonzero" points="22.1333333 22.2516556 22.1333333 10.0662252 17.8666667 10.0662252 17.8666667 22.2516556"></polygon>
            </g>
        </g>
    </g>
</svg>