<svg xmlns="http://www.w3.org/2000/svg" width="40" height="40" viewBox="0 0 40 40">
    <g fill="none" fill-rule="evenodd">
        <path fill="#127510" d="M20 0c11.045 0 20 8.955 20 20s-8.955 20-20 20C8.953 40 0 31.045 0 20S8.953 0 20 0"/>
        <path fill="#FEFEFE" d="M26.8 20.055a6.75 6.75 0 0 1-6.744 6.743c-3.717 0-6.744-3.025-6.744-6.743 0-3.717 3.027-6.743 6.744-6.743a6.75 6.75 0 0 1 6.743 6.743zm2.752-1.432a9.554 9.554 0 0 0-1.77-4.267l1.623-1.623-2.025-2.027-1.624 1.622a9.59 9.59 0 0 0-4.268-1.77V8.267h-2.865v2.291a9.59 9.59 0 0 0-4.268 1.77l-1.623-1.622-2.025 2.027 1.623 1.622a9.548 9.548 0 0 0-1.77 4.268H8.266v2.865h2.292a9.55 9.55 0 0 0 1.77 4.268l-1.622 1.623 2.025 2.026 1.623-1.623a9.574 9.574 0 0 0 4.268 1.77v2.292h2.865v-2.292a9.575 9.575 0 0 0 4.268-1.77l1.624 1.623 2.025-2.026-1.623-1.623a9.564 9.564 0 0 0 1.77-4.268h2.293v-2.865h-2.293z"/>
    </g>
</svg>
