<?xml version="1.0" encoding="UTF-8"?>
<svg width="40px" height="40px" viewBox="0 0 40 40" version="1.1" xmlns="http://www.w3.org/2000/svg" xmlns:xlink="http://www.w3.org/1999/xlink">
    <!-- Generator: Sketch 47.1 (45422) - http://www.bohemiancoding.com/sketch -->
    <title>stop idle</title>
    <desc>Created with Sketch.</desc>
    <defs></defs>
    <g id="Production-Floor-new-icons" stroke="none" stroke-width="1" fill="none" fill-rule="evenodd">
        <g id="New-Icons-40" transform="translate(-94.000000, -115.000000)">
            <g id="stop-idle" transform="translate(94.000000, 115.000000)">
                <path d="M40.0001143,19.8678903 C40.0001143,30.8401324 31.0455047,39.7354399 20.0001143,39.7354399 C8.95472388,39.7354399 0.000114285714,30.8401324 0.000114285714,19.8678903 C0.000114285714,8.89448 8.95472388,0.000340586566 20.0001143,0.000340586566 C31.0455047,0.000340586566 40.0001143,8.89448 40.0001143,19.8678903" id="Fill-1" fill="#A6A8AB"></path>
                <path d="M19.4380571,28.1443709 C14.9809143,28.1443709 11.4380571,24.6249763 11.4380571,20.197351 C11.4380571,15.7697256 14.9809143,12.2503311 19.4380571,12.2503311 C23.8940571,12.2503311 27.4380571,15.7697256 27.4380571,20.197351 C27.4380571,24.6249763 23.8940571,28.1443709 19.4380571,28.1443709 L19.4380571,28.1443709 Z M27.4380571,13.8397351 L29.1523429,12.2503311 C28.5809143,11.6826868 28.0094857,11.1150426 27.4380571,10.6609272 L25.8380571,12.2503311 C24.1237714,10.8879849 21.8380571,9.97975402 19.4380571,9.97975402 C13.7237714,9.97975402 9.15234286,14.5209082 9.15234286,20.197351 C9.15234286,25.8737938 13.7237714,30.414948 19.4380571,30.414948 C25.1523429,30.414948 29.7237714,25.8737938 29.7237714,20.197351 C29.7237714,17.813245 28.9237714,15.5426679 27.4380571,13.8397351 L27.4380571,13.8397351 Z M18.2952,21.3326395 L20.5809143,21.3326395 L20.5809143,14.5209082 L18.2952,14.5209082 L18.2952,21.3326395 Z M16.0094857,8.84446547 L22.8666286,8.84446547 L22.8666286,6.57388836 L16.0094857,6.57388836 L16.0094857,8.84446547 Z" id="Fill-4" fill="#FEFEFE"></path>
            </g>
        </g>
    </g>
</svg>