<?xml version="1.0" encoding="UTF-8"?>
<svg width="29px" height="23px" viewBox="0 0 29 23" version="1.1" xmlns="http://www.w3.org/2000/svg" xmlns:xlink="http://www.w3.org/1999/xlink">
    <!-- Generator: Sketch 53.2 (72643) - https://sketchapp.com -->
    <title>advanced</title>
    <desc>Created with Sketch.</desc>
    <g id="advanced" stroke="none" stroke-width="1" fill="none" fill-rule="evenodd">
        <path d="M18.1017367,10.8248547 L16.9946002,11.667 C17.029554,11.939 17.0557694,12.211 17.0557694,12.5 C17.0557694,12.789 17.029554,13.061 16.9946002,13.333 L18.8384137,14.7355 C19.0044443,14.863 19.0481365,15.0925 18.9432751,15.2795 L17.1955846,18.2205 C17.0907232,18.4075 16.8635234,18.484 16.662539,18.4075 L14.4866644,17.5575 C14.0322649,17.889 13.5429115,18.178 13.0098659,18.3905 L12.6778047,20.643 C12.6515894,20.847 12.4680819,21 12.2496206,21 L8.75423962,21 C8.53577831,21 8.35227081,20.847 8.32605546,20.643 L7.99399427,18.3905 C7.46094867,18.178 6.97159534,17.8975 6.51719581,17.5575 L4.34132117,18.4075 C4.14907521,18.4755 3.913137,18.4075 3.80827557,18.2205 L2.06058509,15.2795 C1.95572366,15.0925 1.99941593,14.863 2.16544652,14.7355 L4.00925998,13.333 C3.97430617,13.061 3.94809081,12.7805 3.94809081,12.5 C3.94809081,12.2195 3.97430617,11.939 4.00925998,11.667 L2.16544652,10.2645 C1.99941593,10.137 1.94698521,9.9075 2.06058509,9.7205 L3.80827557,6.7795 C3.913137,6.5925 4.14033676,6.516 4.34132117,6.5925 L6.51719581,7.4425 C6.97159534,7.111 7.46094867,6.822 7.99399427,6.6095 L8.32605546,4.357 C8.35227081,4.153 8.53577831,4 8.75423962,4 L12.2496206,4 C12.4680819,4 12.6515894,4.153 12.6778047,4.357 L13.0098659,6.6095 C13.5429115,6.822 14.0322649,7.1025 14.4866644,7.4425 L16.0107758,6.8471097 C16.1112255,8.46010162 16.9069143,9.88471851 18.1017367,10.8248547 Z M10.5019301,15.475 C12.1884514,15.475 13.5603884,14.1405 13.5603884,12.5 C13.5603884,10.8595 12.1884514,9.525 10.5019301,9.525 C8.81540879,9.525 7.44347176,10.8595 7.44347176,12.5 C7.44347176,14.1405 8.81540879,15.475 10.5019301,15.475 Z" id="Combined-Shape" stroke="#FFFFFF" fill-rule="nonzero"></path>
        <g id="ic_add_circle_outline_24px" transform="translate(16.000000, 1.000000)" fill="#FFFFFF" fill-rule="nonzero">
            <path d="M6,3 L5,3 L5,5 L3,5 L3,6 L5,6 L5,8 L6,8 L6,6 L8,6 L8,5 L6,5 L6,3 Z M5.5,0 C2.464,0 0,2.464 0,5.5 C0,8.536 2.464,11 5.5,11 C8.536,11 11,8.536 11,5.5 C11,2.464 8.536,0 5.5,0 Z M5.5,10 C3.019375,10 1,7.980625 1,5.5 C1,3.019375 3.019375,1 5.5,1 C7.980625,1 10,3.019375 10,5.5 C10,7.980625 7.980625,10 5.5,10 Z" id="Shape"></path>
        </g>
    </g>
</svg>