<?xml version="1.0" encoding="utf-8"?>
<!-- Generator: Adobe Illustrator 26.2.1, SVG Export Plug-In . SVG Version: 6.00 Build 0)  -->
<svg version="1.1" id="icon_Open_pop_up_modal" xmlns="http://www.w3.org/2000/svg" xmlns:xlink="http://www.w3.org/1999/xlink"
	 x="0px" y="0px" viewBox="0 0 16 16" style="enable-background:new 0 0 16 16;" xml:space="preserve">
<style type="text/css">
	.st0{fill:none;}
	.st1{fill:#FFFFFF;}
</style>
<rect id="Rectangle_148047" y="-8" class="st0" width="24" height="24"/>
<path class="st1" d="M15,1.5v4C15,5.8,14.8,6,14.5,6S14,5.8,14,5.5V2.7L7.6,9.1c-0.2,0.2-0.5,0.2-0.7,0s-0.2-0.5,0-0.7L13.3,2h-2.8
	C10.2,2,10,1.8,10,1.5S10.2,1,10.5,1h4C14.8,1,15,1.2,15,1.5z M13.5,7C13.2,7,13,7.2,13,7.5V13c0,0.6-0.4,1-1,1H3c-0.6,0-1-0.4-1-1
	V4c0-0.6,0.4-1,1-1h5.5C8.8,3,9,2.8,9,2.5S8.8,2,8.5,2H3C1.9,2,1,2.9,1,4v9c0,1.1,0.9,2,2,2h9c1.1,0,2-0.9,2-2V7.5
	C14,7.2,13.8,7,13.5,7z"/>
</svg>
