<?xml version="1.0" encoding="utf-8"?>
<!-- Generator: Adobe Illustrator 24.2.1, SVG Export Plug-In . SVG Version: 6.00 Build 0)  -->
<svg version="1.1" id="Layer_1" xmlns="http://www.w3.org/2000/svg" xmlns:xlink="http://www.w3.org/1999/xlink" x="0px" y="0px"
	 viewBox="0 0 20 20" style="enable-background:new 0 0 20 20;" xml:space="preserve">
<style type="text/css">
	.st0{fill:#FFFFFF;}
</style>
<path class="st0" d="M16,2H4C2.9,2,2,2.9,2,4v12c0,1.1,0.9,2,2,2h12c1.1,0,2-0.9,2-2V4C18,2.9,17.1,2,16,2z M7.9,9.6
	c-1.1,0.3-2,1.2-2.3,2.3C5.6,12,5.5,12,5.5,12c-0.1,0-0.1-0.1-0.1-0.1c-0.3-1.1-1.2-2-2.3-2.3C3,9.6,3,9.5,3,9.5s0-0.1,0.1-0.1
	c1.1-0.3,2-1.2,2.3-2.3C5.4,7,5.5,7,5.5,7c0.1,0,0.1,0.1,0.1,0.1c0.3,1.1,1.2,2,2.3,2.3C8,9.4,8,9.5,7.9,9.6z M12.9,14.6
	c-1.1,0.3-2,1.2-2.3,2.3c0,0.1-0.1,0.1-0.2,0.1c0,0-0.1,0-0.1-0.1c-0.3-1.1-1.2-2-2.3-2.3v-0.1c0,0,0-0.1,0.1-0.1
	c1.1-0.3,2-1.2,2.3-2.3c0-0.1,0.1-0.1,0.2-0.1c0,0,0.1,0,0.1,0.1c0.3,1.1,1.2,2,2.3,2.3C13,14.4,13,14.5,12.9,14.6z M16.8,7.2
	c-1.8,0.5-3.1,1.9-3.6,3.6c0,0.1-0.1,0.2-0.2,0.2s-0.2-0.1-0.2-0.2C12.3,9,10.9,7.7,9.2,7.2C9.1,7.2,9,7.1,9,7s0.1-0.2,0.2-0.2
	c1.8-0.5,3.1-1.9,3.6-3.6C12.8,3,12.9,3,13,3s0.2,0.1,0.2,0.2c0.5,1.8,1.9,3.1,3.6,3.6C17,6.8,17,6.9,17,7S16.9,7.2,16.8,7.2z"/>
</svg>
