<?xml version="1.0" encoding="utf-8"?>
<!-- Generator: Adobe Illustrator 24.2.1, SVG Export Plug-In . SVG Version: 6.00 Build 0)  -->
<svg version="1.1" id="Layer_1" xmlns="http://www.w3.org/2000/svg" xmlns:xlink="http://www.w3.org/1999/xlink" x="0px" y="0px"
	 viewBox="0 0 20 20" style="enable-background:new 0 0 20 20;" xml:space="preserve">
<style type="text/css">
	.st0{fill:white;}
</style>
<path class="st0" d="M16.8,7.2c-1.8,0.5-3.1,1.9-3.6,3.6c0,0.1-0.1,0.2-0.2,0.2c-0.1,0-0.2-0.1-0.2-0.2c-0.5-1.8-1.9-3.1-3.6-3.6
	C9.1,7.2,9,7.1,9,7c0-0.1,0.1-0.2,0.2-0.2c1.8-0.5,3.1-1.9,3.6-3.6C12.8,3,12.9,3,13,3c0.1,0,0.2,0.1,0.2,0.2
	c0.5,1.8,1.9,3.1,3.6,3.6C17,6.8,17,6.9,17,7C17,7.1,16.9,7.2,16.8,7.2z M12.9,14.6c-1.1,0.3-2,1.2-2.3,2.3c0,0.1-0.1,0.1-0.2,0.1
	c0,0-0.1,0-0.1-0.1c-0.3-1.1-1.2-2-2.3-2.3C8,14.6,8,14.5,8,14.5c0,0,0-0.1,0.1-0.1c1.1-0.3,2-1.2,2.3-2.3c0-0.1,0.1-0.1,0.2-0.1
	c0,0,0.1,0,0.1,0.1c0.3,1.1,1.2,2,2.3,2.3C13,14.4,13,14.5,12.9,14.6C13,14.6,12.9,14.6,12.9,14.6z M7.9,9.6c-1.1,0.3-2,1.2-2.3,2.3
	C5.6,12,5.5,12,5.5,12c-0.1,0-0.1-0.1-0.1-0.1c-0.3-1.1-1.2-2-2.3-2.3C3,9.6,3,9.5,3,9.5c0,0,0-0.1,0.1-0.1c1.1-0.3,2-1.2,2.3-2.3
	C5.4,7,5.5,7,5.5,7c0.1,0,0.1,0.1,0.1,0.1c0.3,1.1,1.2,2,2.3,2.3C8,9.4,8,9.5,7.9,9.6C8,9.6,7.9,9.6,7.9,9.6z"/>
</svg>
