<?xml version="1.0" encoding="utf-8"?>
<!-- Generator: Adobe Illustrator 26.2.1, SVG Export Plug-In . SVG Version: 6.00 Build 0)  -->
<svg version="1.1" id="Layer_1" xmlns="http://www.w3.org/2000/svg" xmlns:xlink="http://www.w3.org/1999/xlink" x="0px" y="0px"
	 viewBox="0 0 18 18" style="enable-background:new 0 0 18 18;" xml:space="preserve">
<style type="text/css">
	.st0{fill:#FFFFFF;}
</style>
<g id="Group_164489" transform="translate(-16 -572)">
	<path class="st0" d="M33,588.5c0,0.3-0.2,0.5-0.5,0.5h-15c-0.3,0-0.5-0.2-0.5-0.5v0v-15c0-0.3,0.2-0.5,0.5-0.5s0.5,0.2,0.5,0.5v0
		V588h14.5C32.8,588,33,588.2,33,588.5z M21.5,586c0.8,0,1.5-0.7,1.5-1.5c0-0.4-0.2-0.8-0.5-1.1l1.8-3.4c0.1,0,0.1,0,0.2,0
		c0.3,0,0.6-0.1,0.9-0.3l1.7,1.4c0,0.1-0.1,0.3-0.1,0.4c0,0.8,0.7,1.5,1.5,1.5s1.5-0.7,1.5-1.5c0-0.4-0.2-0.8-0.5-1.1l1.9-4.4
		c0,0,0.1,0,0.1,0c0.8,0,1.5-0.7,1.5-1.5s-0.7-1.5-1.5-1.5s-1.5,0.7-1.5,1.5c0,0.4,0.2,0.8,0.5,1.1l-1.9,4.4c0,0-0.1,0-0.1,0
		c-0.3,0-0.6,0.1-0.9,0.3l-1.7-1.4c0-0.1,0.1-0.3,0.1-0.4c0-0.8-0.7-1.5-1.5-1.5s-1.5,0.7-1.5,1.5c0,0.4,0.2,0.8,0.4,1l-1.8,3.5
		c0,0-0.1,0-0.1,0c-0.8,0-1.5,0.7-1.5,1.5S20.7,586,21.5,586z"/>
</g>
</svg>
