<svg xmlns="http://www.w3.org/2000/svg" width="23" height="23" viewBox="0 0 23 23">
    <g fill="#000" fill-rule="nonzero">
        <path d="M7.648 14.924l-.579.594.212.813.791.217.58-.594-.213-.813z"/>
        <path d="M20.99 11.555l-.009-.185-1.73-.561a8.373 8.373 0 0 0-.177-.881l1.341-1.294-.015-.04a9.965 9.965 0 0 0-.9-1.852l-.097-.156-1.771.402a7.876 7.876 0 0 0-.546-.635l.604-1.757-.14-.117a9.435 9.435 0 0 0-1.68-1.143l-.16-.085-1.338 1.259a7.671 7.671 0 0 0-.783-.27l-.333-1.83-.178-.032a9.277 9.277 0 0 0-2.01-.125l-.18.009-.547 1.777a7.73 7.73 0 0 0-.81.168L8.354 2.794l-.169.065a9.466 9.466 0 0 0-1.803.924l-.152.1.392 1.819c-.221.18-.429.37-.618.56l-1.71-.619-.116.143A9.76 9.76 0 0 0 3.065 7.51l-.083.165L4.207 9.05c-.101.264-.19.535-.262.804l-1.782.342-.031.183a9.97 9.97 0 0 0-.12 2.064l.007.187 1.73.56c.04.282.096.561.164.832l-1.375 1.21.062.174c.235.646.538 1.27.9 1.851l.097.157 1.772-.402c.176.227.359.44.545.635l-.603 1.756.139.118a9.467 9.467 0 0 0 1.68 1.142l.16.086 1.34-1.258c.257.105.52.194.782.269l.333 1.832.178.03a9.22 9.22 0 0 0 2.01.125l.181-.008.547-1.776c.274-.042.546-.098.81-.168l1.178 1.413.169-.066a9.504 9.504 0 0 0 1.803-.923l.152-.102-.392-1.819c.22-.18.428-.369.618-.56l1.71.62.115-.144a9.772 9.772 0 0 0 1.113-1.724l.083-.166-1.225-1.374c.102-.265.19-.535.262-.804l1.784-.342.03-.183c.109-.679.15-1.373.118-2.066zm-4.9-1.274a1.967 1.967 0 0 1-1.42.601 2.04 2.04 0 0 1-.814-.171 1.81 1.81 0 0 1-.14.162L9.35 15.355a1.612 1.612 0 0 1-.403 1.498 1.507 1.507 0 0 1-2.174 0 1.61 1.61 0 0 1 0-2.233 1.505 1.505 0 0 1 1.458-.415l4.364-4.481c.049-.05.102-.099.158-.144-.325-.784-.16-1.7.419-2.295a1.967 1.967 0 0 1 1.42-.6c.247 0 .49.044.723.133l.093.035-1.192 1.225-.027 1.159 1.129-.029 1.192-1.224.035.096a2.13 2.13 0 0 1-.456 2.201z"/>
    </g>
</svg>
