<svg xmlns="http://www.w3.org/2000/svg" width="23" height="23" viewBox="0 0 23 23">
    <g fill="#000" fill-rule="nonzero">
        <path d="M9.64 5.058a4.872 4.872 0 0 1 1.772-.342c.607 0 1.2.122 1.77.344l.953-1.712a.886.886 0 0 0-.021-.903A.953.953 0 0 0 13.3 2H9.524a.954.954 0 0 0-.815.445.89.89 0 0 0-.02.905l.952 1.708zM19.46 17.937c-.184-.318-.493-.627-.894-.88.104-.39.16-.833.16-1.339 0-3.905-3.275-10.032-7.314-10.032-4.04 0-7.315 6.126-7.315 10.032 0 .506.055.95.16 1.338-.4.254-.71.563-.893.88-.194.336-.248.683-.12.985.186.433.705.676 1.353.696.43.013.919-.072 1.403-.265.086-.034.169-.07.25-.11 1.323.536 3.147.587 5.162.587 2.014 0 3.837-.051 5.16-.587.082.04.165.076.251.11.485.193.972.278 1.403.265.648-.02 1.168-.263 1.353-.696.128-.302.074-.649-.12-.984z"/>
    </g>
</svg>
