<svg xmlns="http://www.w3.org/2000/svg" width="23" height="23" viewBox="0 0 23 23">
    <g fill="none" fill-rule="evenodd">
        <path fill="#000" fill-rule="nonzero" d="M7.875 10.625h-1.75v1.75h1.75v-1.75zm3.5 0h-1.75v1.75h1.75v-1.75zm3.5 0h-1.75v1.75h1.75v-1.75zm1.75-6.125h-.875V2.75H14V4.5H7V2.75H5.25V4.5h-.875c-.971 0-1.741.787-1.741 1.75L2.625 18.5c0 .962.779 1.75 1.75 1.75h12.25c.962 0 1.75-.788 1.75-1.75V6.25c0-.963-.788-1.75-1.75-1.75zm0 14H4.375V8.875h12.25V18.5z"/>
        <path d="M0 1h21v21H0z"/>
    </g>
</svg>
