<svg xmlns="http://www.w3.org/2000/svg" width="23" height="23" viewBox="0 0 23 23">
    <g fill="#000" fill-rule="nonzero">
        <path d="M15.722 13.592v-9.14C15.722 3.1 14.572 2 13.158 2c-1.414 0-2.564 1.1-2.564 2.452v9.14C7.98 15.84 9.648 20 13.158 20c3.509 0 5.18-4.16 2.564-6.408zm-1.377-3.542H11.97V4.452c0-.626.533-1.135 1.187-1.135s1.187.51 1.187 1.135v5.598zM8.847 10.341H7.689c-.38 0-.688.295-.688.659 0 .364.308.659.688.659h1.158c.38 0 .688-.295.688-.659 0-.364-.308-.659-.688-.659zM8.847 8.172H7.689c-.38 0-.688.295-.688.659 0 .363.308.658.688.658h1.158c.38 0 .688-.295.688-.658 0-.364-.308-.659-.688-.659zM8.847 6.003H7.689c-.38 0-.688.295-.688.659 0 .363.308.658.688.658h1.158c.38 0 .688-.295.688-.658 0-.364-.308-.659-.688-.659z"/>
    </g>
</svg>
