<svg xmlns="http://www.w3.org/2000/svg" width="23" height="23" viewBox="0 0 23 23">
    <g fill="#000" fill-rule="nonzero">
        <path d="M16.881 2.507l-4.896 4.896 2.463 2.463 4.91-4.896a1.747 1.747 0 0 0 0-2.463 1.765 1.765 0 0 0-2.477 0z"/>
        <path d="M13.555 10.773l-2.477-2.462-.403-.404c-.187-.187-.26-.446-.187-.69.115-.433.158-.894.115-1.369a4.04 4.04 0 0 0-.432-1.526 4.126 4.126 0 0 0-.95-1.224 4.07 4.07 0 0 0-1.34-.792 4.173 4.173 0 0 0-2.016-.187c-.345.057-.49.49-.23.734l1.684 1.685c.677.677.72 1.829.044 2.505a1.73 1.73 0 0 1-1.239.504c-.446 0-.893-.172-1.238-.518l-1.728-1.7a.44.44 0 0 0-.303-.129.433.433 0 0 0-.432.375 3.688 3.688 0 0 0-.043.561c-.043 2.045 1.67 3.975 3.73 4.162.13.014.259.014.388.014.36 0 .691-.043 1.023-.13a.751.751 0 0 1 .705.202l.39.39.69.69 1.023 1.023.748.748 5.588 5.588c.345.345.792.518 1.238.518a1.747 1.747 0 0 0 1.238-2.98l-5.586-5.588z"/>
        <path d="M6.398 17.253l-.029-.36a.62.62 0 0 1 .187-.49l1.685-1.684a.113.113 0 0 1 .159 0 .87.87 0 0 0 1.238 0l.562-.562-.692-.69-.547-.548-.547-.547-.691-.692-.562.562a.87.87 0 0 0 0 1.238.113.113 0 0 1 0 .159l-1.7 1.685a.62.62 0 0 1-.489.187l-.36-.029a.43.43 0 0 0-.374.159l-2.131 2.62a.441.441 0 0 0 .029.59l.446.447.446.447a.44.44 0 0 0 .59.028l2.622-2.13a.584.584 0 0 0 .158-.39z"/>
    </g>
</svg>
