<?xml version="1.0" encoding="utf-8"?>
<!-- Generator: Adobe Illustrator 24.2.1, SVG Export Plug-In . SVG Version: 6.00 Build 0)  -->
<svg version="1.1" id="Layer_1" xmlns="http://www.w3.org/2000/svg" xmlns:xlink="http://www.w3.org/1999/xlink" x="0px" y="0px"
	 viewBox="0 0 20 20" style="enable-background:new 0 0 20 20;" xml:space="preserve">
<style type="text/css">
	.st0{clip-path:url(#SVGID_2_);}
	.st1{clip-path:url(#SVGID_4_);fill:#4A4A4A;}
</style>
<g>
	<defs>
		<path id="SVGID_1_" d="M11,3c0,0.6,0.4,1,1,1h2.6l-7.1,7.1c-0.4,0.4-0.4,1,0,1.4c0.4,0.4,1,0.4,1.4,0c0,0,0,0,0,0L16,5.4V8
			c0,0.6,0.4,1,1,1s1-0.4,1-1V2.5C18,2.2,17.8,2,17.5,2H12C11.4,2,11,2.4,11,3z M16,16H4V4h3c0.6,0,1-0.4,1-1S7.6,2,7,2H3.8
			C2.8,2,2,2.8,2,3.8v12.4c0,1,0.8,1.8,1.8,1.8h12.4c1,0,1.8-0.8,1.8-1.8V13c0-0.6-0.4-1-1-1s-1,0.4-1,1V16z"/>
	</defs>
	<clipPath id="SVGID_2_">
		<use xlink:href="#SVGID_1_"  style="overflow:visible;"/>
	</clipPath>
	<g class="st0">
		<defs>
			<rect id="SVGID_3_" x="-1436" y="-35" width="1556" height="843"/>
		</defs>
		<clipPath id="SVGID_4_">
			<use xlink:href="#SVGID_3_"  style="overflow:visible;"/>
		</clipPath>
		<rect x="1" y="1" class="st1" width="18" height="18"/>
	</g>
</g>
</svg>
