<svg xmlns="http://www.w3.org/2000/svg" xmlns:xlink="http://www.w3.org/1999/xlink" width="24" height="24" viewBox="0 0 24 24">
    <defs>
        <path id="prefix__a" d="M11.085 0l.495 1.957c.195.072.39.153.585.242L13.89 1.16l2.947 2.948-1.034 1.73c.09.192.172.387.24.586l1.957.49v4.17l-1.957.49c-.068.198-.15.394-.24.585l1.034 1.73-2.947 2.948-1.725-1.038c-.195.089-.39.17-.585.242L11.085 18h-4.17l-.487-1.959c-.203-.072-.398-.152-.585-.241L4.11 16.838 1.162 13.89l1.035-1.731c-.09-.191-.164-.386-.24-.585L0 11.084v-4.17l1.958-.49c.075-.199.157-.393.24-.584L1.162 4.11l2.947-2.95 1.732 1.038c.188-.089.383-.17.586-.242L6.915 0h4.17zm-1.17 1.5h-1.83L7.68 3.134l-.412.123c-.383.115-.758.27-1.103.457l-.375.201-1.447-.866-1.29 1.294.862 1.443-.203.376c-.187.346-.337.72-.457 1.108l-.12.407-1.635.408v1.829l1.635.408.128.41c.112.383.262.755.45 1.106l.202.375-.862 1.444 1.29 1.293 1.447-.868.375.202c.353.19.72.343 1.103.458l.412.122.405 1.636h1.83l.413-1.635.405-.123c.39-.116.757-.27 1.11-.457l.374-.202 1.44.867 1.298-1.293-.87-1.444.202-.376c.188-.35.345-.721.458-1.105l.12-.41 1.635-.408V8.086l-1.635-.41-.12-.407c-.112-.389-.27-.76-.457-1.107l-.203-.375.87-1.445-1.297-1.293-1.44.866-.376-.2c-.352-.19-.727-.343-1.11-.458l-.404-.123L9.915 1.5zM9 6c1.658 0 3 1.345 3 2.999 0 1.654-1.342 3-3 3-1.65 0-3-1.346-3-3s1.35-3 3-3zm0 1.5c-.825 0-1.5.672-1.5 1.499 0 .827.675 1.5 1.5 1.5s1.5-.673 1.5-1.5-.675-1.5-1.5-1.5z"/>
    </defs>
    <g fill="none" fill-rule="evenodd" transform="translate(3 3)">
        <mask id="prefix__b" fill="#fff">
            <use xlink:href="#prefix__a"/>
        </mask>
        <use fill="#757575" xlink:href="#prefix__a"/>
        <g fill="#4A4A4A" mask="url(#prefix__b)">
            <path d="M0 0H288V288H0z" transform="translate(-135 -138)"/>
        </g>
    </g>
</svg>
