<svg xmlns="http://www.w3.org/2000/svg" xmlns:xlink="http://www.w3.org/1999/xlink" width="35" height="34" viewBox="0 0 35 34">
    <defs>
        <path id="she6gxoxna" d="M18.428 20.307c3.683 0 6.695 2.489 6.827 5.59l.004.212v1.658H5.741v-1.658c0-3.128 2.93-5.686 6.581-5.798l.25-.004h5.856zm0 1.865h-5.856c-2.614 0-4.75 1.577-4.874 3.55l-.005.18h15.614c0-2.056-2.186-3.73-4.88-3.73zm-5.856-7.46c0 1.543 1.318 2.797 2.928 2.797 1.61 0 2.928-1.254 2.928-2.797h1.952c0 2.57-2.186 4.662-4.88 4.662s-4.88-2.091-4.88-4.662h1.952zm2.967-9.045c2.73 0 5.121 1.626 6.037 3.99.625.107 1.1.638 1.1 1.278v1.826c0 .717-.596 1.298-1.332 1.298H9.656c-.736 0-1.332-.581-1.332-1.298v-1.826c0-.62.446-1.138 1.042-1.267l.14-.023.1-.241c.985-2.226 3.302-3.737 5.933-3.737zm.536 1.707v3.117c0 .27-.258.49-.575.49-.285 0-.522-.177-.567-.41l-.007-.08V7.383c-.4.049-.785.145-1.149.282v1.67c0 .292-.256.528-.573.528-.286 0-.522-.191-.567-.442l-.007-.085V8.289c-.804.592-1.4 1.427-1.66 2.398l-.167.63-.757-.001v1.065h10.908v-1.065h-.679l-.167-.629c-.267-1.002-.894-1.86-1.737-2.454v1.103c0 .29-.258.527-.575.527-.285 0-.522-.191-.566-.442l-.008-.085.001-1.7c-.364-.13-.749-.22-1.148-.262z"/>
        <path id="boq1h346mc" d="M6.667 0C2.987 0 0 2.987 0 6.667c0 3.68 2.987 6.666 6.667 6.666 3.68 0 6.666-2.986 6.666-6.666S10.347 0 6.667 0zM10 7.333H7.333V10H6V7.333H3.333V6H6V3.333h1.333V6H10v1.333z"/>
    </defs>
    <g fill="none" fill-rule="evenodd">
        <g>
            <g>
                <g>
                    <g transform="translate(-581 -194) translate(269 118) translate(0 74) translate(312.5 2)">
                        <g>
                            <mask id="xea6wd00ab" fill="#fff">
                                <use xlink:href="#she6gxoxna"/>
                            </mask>
                            <use fill="#757575" xlink:href="#she6gxoxna"/>
                            <g fill="#000" mask="url(#xea6wd00ab)">
                                <path d="M0 0H165.333V163.2H0z" transform="translate(-70.037 -65.733)"/>
                            </g>
                        </g>
                        <circle cx="26" cy="24.5" r="5.5" fill="#FFF"/>
                        <g>
                            <path d="M0 0L16 0 16 16 0 16z" transform="translate(18 17)"/>
                            <g transform="translate(18 17) translate(1.333 1.333)">
                                <mask id="cghjchhfpd" fill="#fff">
                                    <use xlink:href="#boq1h346mc"/>
                                </mask>
                                <use fill="#757575" fill-rule="nonzero" xlink:href="#boq1h346mc"/>
                                <g fill="#007AFF" mask="url(#cghjchhfpd)">
                                    <path d="M0 0H192V192H0z" transform="translate(-88 -88)"/>
                                </g>
                            </g>
                        </g>
                    </g>
                </g>
            </g>
        </g>
    </g>
</svg>
