<svg xmlns="http://www.w3.org/2000/svg" width="30" height="34" viewBox="0 0 30 34">
    <g fill="none" fill-rule="evenodd">
        <path fill="#FFF" fill-rule="nonzero" d="M10 15.333H6.667v3.334H10v-3.334zm6.667 0h-3.334v3.334h3.334v-3.334zm6.666 0H20v3.334h3.333v-3.334zm3.334-11.666H25V.333h-3.333v3.334H8.333V.333H5v3.334H3.333C1.483 3.667.017 5.167.017 7L0 30.333a3.332 3.332 0 0 0 3.333 3.334h23.334c1.833 0 3.333-1.5 3.333-3.334V7c0-1.833-1.5-3.333-3.333-3.333zm0 26.666H3.333V12h23.334v18.333z"/>
        <path d="M-5-3h40v40H-5z"/>
    </g>
</svg>
