<svg xmlns="http://www.w3.org/2000/svg" xmlns:xlink="http://www.w3.org/1999/xlink" width="24" height="24" viewBox="0 0 24 24">
    <defs>
        <path id="prefix__a" d="M22.881 20.988L24 22.206 20.181 26 18 23.732l1.151-1.191 1.063 1.102 2.667-2.655zm-6.831-2.873c2.233 0 4.183 1.08 5.2 2.674l-1.201 1.206c-.591-1.287-2.16-2.21-3.999-2.21h-5.1c-2.273 0-4.13 1.408-4.244 3.17l-.006.172h9.378l1.556 1.671H5v-1.485c0-2.797 2.543-5.086 5.717-5.194l.233-.004h5.1zm-5.1-5.012c0 1.383 1.148 2.506 2.55 2.506s2.55-1.123 2.55-2.506h1.7c0 2.303-1.904 4.177-4.25 4.177s-4.25-1.874-4.25-4.177h1.7zM13.534 5c2.378 0 4.46 1.457 5.258 3.574.544.096.958.572.958 1.145v1.636c0 .643-.52 1.163-1.16 1.163H8.41c-.64 0-1.16-.52-1.16-1.163V9.72c0-.555.388-1.02.908-1.135l.122-.02.087-.216C9.224 6.354 11.243 5 13.534 5zm.467 1.53L14 9.32c0 .243-.224.44-.5.44-.245 0-.45-.155-.492-.36L13 9.32V6.537c-.348.044-.683.13-1 .253v1.497c0 .26-.224.472-.5.472-.245 0-.45-.167-.492-.387L11 8.287v-.938c-.7.53-1.22 1.279-1.445 2.149l-.146.563H8.75v.954h9.5v-.954h-.59l-.147-.563c-.232-.899-.778-1.666-1.513-2.2v.989c0 .26-.224.472-.5.472-.245 0-.45-.167-.492-.387L15 8.287l.001-1.522c-.317-.117-.653-.198-1-.236z"/>
    </defs>
    <g fill="none" fill-rule="evenodd" transform="translate(-2 -3)">
        <mask id="prefix__b" fill="#fff">
            <use xlink:href="#prefix__a"/>
        </mask>
        <use fill="#757575" xlink:href="#prefix__a"/>
        <g fill="#007AFF" mask="url(#prefix__b)">
            <path d="M0 0H144V144H0z" transform="translate(-62.7 -59.5)"/>
        </g>
    </g>
</svg>
