<svg xmlns="http://www.w3.org/2000/svg" width="16" height="16" viewBox="0 0 16 16">
    <g fill="none" fill-rule="evenodd">
        <path fill="#4A4A4A" fill-rule="nonzero" d="M9 1.5C4.853 1.5 1.5 4.853 1.5 9c0 4.148 3.353 7.5 7.5 7.5 4.148 0 7.5-3.352 7.5-7.5 0-4.147-3.352-7.5-7.5-7.5zm3.75 10.193l-1.057 1.057L9 10.057 6.308 12.75 5.25 11.693 7.942 9 5.25 6.308 6.308 5.25 9 7.942l2.693-2.692 1.057 1.058L10.057 9l2.693 2.693z" transform="translate(-1 -1)"/>
        <path d="M0 0L18 0 18 18 0 18z" transform="translate(-1 -1)"/>
    </g>
</svg>
