<svg xmlns="http://www.w3.org/2000/svg" xmlns:xlink="http://www.w3.org/1999/xlink" width="22" height="22" viewBox="0 0 22 22">
    <defs>
        <path id="a" d="M11 7c-2.21 0-4 1.79-4 4s1.79 4 4 4 4-1.79 4-4-1.79-4-4-4zm8.94 3A8.994 8.994 0 0 0 12 2.06V0h-2v2.06A8.994 8.994 0 0 0 2.06 10H0v2h2.06A8.994 8.994 0 0 0 10 19.94V22h2v-2.06A8.994 8.994 0 0 0 19.94 12H22v-2h-2.06zM11 18c-3.87 0-7-3.13-7-7s3.13-7 7-7 7 3.13 7 7-3.13 7-7 7z"/>
    </defs>
    <g fill="none" fill-rule="evenodd">
        <path d="M-1-1h24v24H-1z"/>
        <g>
            <mask id="b" fill="#fff">
                <use xlink:href="#a"/>
            </mask>
            <use fill="#072345" fill-rule="nonzero" xlink:href="#a"/>
            <g fill="#FFF" mask="url(#b)">
                <path d="M-41-36H59v95H-41z"/>
            </g>
        </g>
    </g>
</svg>
