<?xml version="1.0" encoding="utf-8"?>
<!-- Generator: Adobe Illustrator 26.0.1, SVG Export Plug-In . SVG Version: 6.00 Build 0)  -->
<svg version="1.1" id="Layer_1" xmlns="http://www.w3.org/2000/svg" xmlns:xlink="http://www.w3.org/1999/xlink" x="0px" y="0px"
	 viewBox="0 0 24 24" style="enable-background:new 0 0 24 24;" xml:space="preserve">
<style type="text/css">
	.st0{fill:none;}
	.st1{fill:#404D61;}
</style>
<g id="Group_162074">
	<path class="st0" d="M18,14.3L12.5,20H10v-2.5l5.5-5.7L18,14.3z"/>
	<path class="st1" d="M10,17.5V20h2.5l5.5-5.7l-2.5-2.5L10,17.5z M16.6,14.3L12.1,19H11v-1.1l4.5-4.6L16.6,14.3z M19.7,12.8
		l-1.1,1.1l-2.5-2.5l1.1-1.1c0.4-0.4,1-0.4,1.4,0l1.1,1.1C20.1,11.7,20.1,12.4,19.7,12.8z M5,18V9h3.5C8.8,9,9,8.7,9,8.5V5h5
		c0.6,0,1,0.4,1,1v5l1-1.1V6c0-1.1-0.9-2-2-2H8c0,0-1.1,1.1-2.1,2.1C4.8,7.2,4,8,4,8v10c0,1.1,0.9,2,2,2h3v-1H6C5.4,19,5,18.6,5,18z
		 M6.6,6.8l0.4-0.4c0.4-0.4,0.7-0.7,1-1.1V8H5.4C5.8,7.6,6.2,7.2,6.6,6.8z"/>
</g>
</svg>
