<svg xmlns="http://www.w3.org/2000/svg" xmlns:xlink="http://www.w3.org/1999/xlink" width="24" height="24" viewBox="0 0 24 24">
    <defs>
        <path id="a" d="M0 0v5.6h1.6V2.725L5.275 6.4 6.4 5.275 2.725 1.6H5.6V0H0zm10.4 0v1.6h2.875L9.6 5.275 10.725 6.4 14.4 2.725V5.6H16V0h-5.6zM5.275 9.6L1.6 13.275V10.4H0V16h5.6v-1.6H2.725L6.4 10.725 5.275 9.6zm5.45 0L9.6 10.725l3.675 3.675H10.4V16H16v-5.6h-1.6v2.875L10.725 9.6z"/>
    </defs>
    <g fill="none" fill-rule="evenodd">
        <g transform="translate(4 4)">
            <mask id="b" fill="#fff">
                <use xlink:href="#a"/>
            </mask>
            <use fill="#000" fill-rule="nonzero" xlink:href="#a"/>
            <g fill="#4A4A4A" mask="url(#b)">
                <path d="M-136-135h288v288h-288z"/>
            </g>
        </g>
    </g>
</svg>
