<svg xmlns="http://www.w3.org/2000/svg" xmlns:xlink="http://www.w3.org/1999/xlink" width="24" height="24" viewBox="0 0 24 24">
    <defs>
        <path id="prefix__a" d="M4 4.25l-.103.007c-.598.077-.875.826-.427 1.273l5.78 5.781V16c0 .199.079.39.22.53l4 4 .077.068c.478.369 1.203.035 1.203-.598v-7.69l6.78-6.78c.473-.472.138-1.28-.53-1.28H4zm15.188 1.5l-5.718 5.72-.077.09c-.092.127-.143.28-.143.44v6.189l-2.5-2.5V11l-.01-.118c-.024-.155-.097-.3-.21-.412L5.811 5.75h13.377z"/>
    </defs>
    <g fill="none" fill-rule="evenodd">
        <mask id="prefix__b" fill="#fff">
            <use xlink:href="#prefix__a"/>
        </mask>
        <use fill="#979797" fill-rule="nonzero" xlink:href="#prefix__a"/>
        <g fill="#007AFF" mask="url(#prefix__b)">
            <path d="M0 0H288V288H0z" transform="translate(-132 -136)"/>
        </g>
    </g>
</svg>
