<svg xmlns="http://www.w3.org/2000/svg" viewBox="0 0 24 24" width="24" height="24">
	<defs>
		<clipPath clipPathUnits="userSpaceOnUse" id="cp1">
			<path d="M20.75 4C21.42 4 21.75 4.81 21.28 5.28L14.5 12.06L14.5 19.75C14.5 20.38 13.78 20.72 13.3 20.35L13.22 20.28L9.22 16.28C9.08 16.14 9 15.95 9 15.75L9 11.06L3.22 5.28C2.77 4.83 3.05 4.08 3.65 4.01L3.75 4L20.75 4ZM18.94 5.5L5.56 5.5L10.28 10.22C10.39 10.33 10.47 10.48 10.49 10.63L10.5 10.75L10.5 15.44L13 17.94L13 11.75C13 11.59 13.05 11.44 13.14 11.31L13.22 11.22L18.94 5.5Z" />
		</clipPath>
	</defs>
	<style>
		tspan { white-space:pre }
		.shp0 { fill: #979797 } 
		.shp1 { fill: #000000 } 
	</style>
	<g id="Layer">
		<path id="prefix__a" fill-rule="evenodd" class="shp0" d="M20.75 4C21.42 4 21.75 4.81 21.28 5.28L14.5 12.06L14.5 19.75C14.5 20.38 13.78 20.72 13.3 20.35L13.22 20.28L9.22 16.28C9.08 16.14 9 15.95 9 15.75L9 11.06L3.22 5.28C2.77 4.83 3.05 4.08 3.65 4.01L3.75 4L20.75 4ZM18.94 5.5L5.56 5.5L10.28 10.22C10.39 10.33 10.47 10.48 10.49 10.63L10.5 10.75L10.5 15.44L13 17.94L13 11.75C13 11.59 13.05 11.44 13.14 11.31L13.22 11.22L18.94 5.5Z" />
		<g id="Clip-Path" clip-path="url(#cp1)">
			<g id="Layer">
				<path id="Layer" fill-rule="evenodd" class="shp1" d="M-131 -131.5L157 -131.5L157 156.5L-131 156.5L-131 -131.5Z" />
			</g>
		</g>
	</g>
</svg>