<svg xmlns="http://www.w3.org/2000/svg" xmlns:xlink="http://www.w3.org/1999/xlink" width="24" height="24" viewBox="0 0 24 24">
    <defs>
        <path id="prefix__a" d="M7.65 13.6h1.7v-1.7h-1.7v1.7zM8.5 0C3.808 0 0 3.808 0 8.5S3.808 17 8.5 17 17 13.192 17 8.5 13.192 0 8.5 0zm0 15.3c-3.748 0-6.8-3.052-6.8-6.8 0-3.748 3.051-6.8 6.8-6.8 3.748 0 6.8 3.051 6.8 6.8 0 3.748-3.052 6.8-6.8 6.8zm0-11.9c-1.878 0-3.4 1.522-3.4 3.4h1.7c0-.935.765-1.7 1.7-1.7.935 0 1.7.765 1.7 1.7 0 1.7-2.55 1.487-2.55 4.25h1.7c0-1.913 2.55-2.125 2.55-4.25 0-1.878-1.521-3.4-3.4-3.4z"/>
    </defs>
    <g fill="none" fill-rule="evenodd" transform="translate(4 4)">
        <use fill="#4A4A4A" fill-rule="nonzero" xlink:href="#prefix__a"/>
    </g>
</svg>
