<svg xmlns="http://www.w3.org/2000/svg" xmlns:xlink="http://www.w3.org/1999/xlink" width="22" height="19" viewBox="0 0 22 19">
    <defs>
        <path id="a" d="M11 4c2.76 0 5 2.24 5 5 0 .65-.13 1.26-.36 1.83l2.92 2.92c1.51-1.26 2.7-2.89 3.43-4.75-1.73-4.39-6-7.5-11-7.5-1.4 0-2.74.25-3.98.7l2.16 2.16C9.74 4.13 10.35 4 11 4zM1 1.27l2.28 2.28.46.46A11.804 11.804 0 0 0 0 9c1.73 4.39 6 7.5 11 7.5 1.55 0 3.03-.3 4.38-.84l.42.42L18.73 19 20 17.73 2.27 0 1 1.27zM6.53 6.8l1.55 1.55C8.03 8.56 8 8.78 8 9c0 1.66 1.34 3 3 3 .22 0 .44-.03.65-.08l1.55 1.55c-.67.33-1.41.53-2.2.53-2.76 0-5-2.24-5-5 0-.79.2-1.53.53-2.2zm4.31-.78l3.15 3.15.02-.16c0-1.66-1.34-3-3-3l-.17.01z"/>
    </defs>
    <g fill="none" fill-rule="evenodd">
        <path d="M-1-3h24v24H-1V-3zm0 0h24v24H-1V-3zm0 0h24v24H-1V-3zm0 0h24v24H-1V-3z"/>
        <g>
            <mask id="b" fill="#fff">
                <use xlink:href="#a"/>
            </mask>
            <use fill="#072345" fill-rule="nonzero" xlink:href="#a"/>
            <g fill="#FFF" mask="url(#b)">
                <path d="M-39-38H61v95H-39z"/>
            </g>
        </g>
    </g>
</svg>
