<svg xmlns="http://www.w3.org/2000/svg" xmlns:xlink="http://www.w3.org/1999/xlink" width="44" height="44" viewBox="0 0 44 44">
    <defs>
        <path id="1zd4b9dgma" d="M36.667 22c0 8.103-6.564 14.667-14.667 14.667-2.878 0-5.555-.844-7.81-2.274l2.677-2.676C18.388 32.542 20.148 33 22 33c6.068 0 11-4.932 11-11zM12.95 27.194c.747 1.255.34 2.887-.908 3.644-1.248.758-2.865.355-3.61-.9-.747-1.255-.34-2.886.908-3.644s2.864-.355 3.61.9zm12.61-7.21c1.119 1.883.509 4.33-1.363 5.467-1.872 1.137-4.297.532-5.416-1.35-1.12-1.883-.51-4.33 1.362-5.467 1.872-1.136 4.297-.532 5.417 1.35zM22 7.335c2.878 0 5.555.843 7.81 2.273l-2.677 2.676C25.612 11.458 23.852 11 22 11c-6.068 0-11 4.932-11 11H7.333c0-8.103 6.564-14.667 14.667-14.667zm13.579 6.264c.746 1.255.339 2.886-.91 3.644-1.247.758-2.864.355-3.61-.9s-.34-2.887.909-3.645c1.248-.757 2.864-.354 3.61.9z"/>
    </defs>
    <g fill="none" fill-rule="evenodd">
        <mask id="8s0kaxswhb" fill="#fff">
            <use xlink:href="#1zd4b9dgma"/>
        </mask>
        <use fill="#000" fill-rule="nonzero" xlink:href="#1zd4b9dgma"/>
        <g fill="#007AFF" mask="url(#8s0kaxswhb)">
            <path d="M0 0H528V528H0z" transform="translate(-247.5 -249.333)"/>
        </g>
    </g>
</svg>
