<svg xmlns="http://www.w3.org/2000/svg" width="40" height="31" viewBox="0 0 40 31">
    <path fill="#FFF" fill-rule="nonzero" d="M14.4 13.625h3.2V0h4.8v13.625h2.4v-9.65h4.8v9.65h1.677c4.818 0 8.723 3.89 8.723 8.687C40 27.11 36.095 31 31.277 31H8.723C3.905 31 0 27.11 0 22.312s3.905-8.687 8.723-8.687H9.6v-9.65h4.8v9.65zm-5.677 2.49c-3.437 0-6.223 2.774-6.223 6.197s2.786 6.198 6.223 6.198h22.554c3.437 0 6.223-2.775 6.223-6.198 0-3.423-2.786-6.198-6.223-6.198H8.723zm19.954 6.197c0-1.375 1.116-2.5 2.48-2.5 1.363 0 2.478 1.125 2.478 2.5s-1.115 2.5-2.479 2.5c-1.363 0-2.479-1.125-2.479-2.5zm-6.198 0c0 1.375-1.115 2.5-2.479 2.5s-2.48-1.125-2.48-2.5 1.116-2.5 2.48-2.5c1.364 0 2.48 1.125 2.48 2.5zm-11.156 0c0 1.375-1.116 2.5-2.48 2.5-1.363 0-2.478-1.125-2.478-2.5s1.115-2.5 2.479-2.5c1.363 0 2.479 1.125 2.479 2.5z"/>
</svg>
