<svg xmlns="http://www.w3.org/2000/svg" xmlns:xlink="http://www.w3.org/1999/xlink" width="24" height="24" viewBox="0 0 24 24">
    <defs>
        <path id="bfxkfph0aa" d="M17.25 5c1.01 0 2.064.132 3.023.441.647.22 1.209.485 1.727.883v12.882c0 .22-.216.441-.432.441-.086 0-.13 0-.216-.044-1.209-.662-2.677-.927-4.102-.927-1.468 0-3.584.574-4.75 1.324-1.252-.97-3.066-1.324-4.75-1.324-1.252 0-2.936.398-4.102.971-.087 0-.13.044-.216.044-.216 0-.432-.22-.432-.441V6.324C4.252 5.353 6.066 5 7.75 5c1.684 0 3.498.353 4.75 1.324C13.752 5.353 15.566 5 17.25 5zm0 1.765c-1.468 0-3.584.573-4.75 1.323v10.147c1.166-.75 3.282-1.323 4.75-1.323 1.036 0 2.073.132 3.023.44V7.207c-.95-.309-1.987-.441-3.023-.441zm0 6.909c.743 0 1.477.07 2.16.211v1.341c-.666-.15-1.4-.229-2.16-.229-1.555 0-2.91.309-3.886.874v-1.465c1.088-.477 2.418-.732 3.886-.732zm0-2.356c.743 0 1.477.08 2.16.211v1.342c-.666-.15-1.4-.23-2.16-.23-1.555 0-2.91.309-3.886.874V12.05c1.088-.468 2.418-.732 3.886-.732zm0-2.347c.743 0 1.477.079 2.16.211v1.342c-.666-.15-1.4-.23-2.16-.23-1.555 0-2.91.309-3.886.874V9.703c1.088-.477 2.418-.732 3.886-.732z"/>
    </defs>
    <g fill="none" fill-rule="evenodd">
        <mask id="kr5etyttyb" fill="#fff">
            <use xlink:href="#bfxkfph0aa"/>
        </mask>
        <use fill="#000" fill-rule="nonzero" xlink:href="#bfxkfph0aa"/>
        <g fill="#4A4A4A" mask="url(#kr5etyttyb)">
            <path d="M0 0H288V288H0z" transform="translate(-135 -132)"/>
        </g>
    </g>
</svg>
