<?xml version="1.0" encoding="utf-8"?>
<!-- Generator: Adobe Illustrator 26.1.0, SVG Export Plug-In . SVG Version: 6.00 Build 0)  -->
<svg version="1.1" id="Icon_Line" xmlns="http://www.w3.org/2000/svg" xmlns:xlink="http://www.w3.org/1999/xlink" x="0px" y="0px"
	 viewBox="0 0 26 26" style="enable-background:new 0 0 26 26;" xml:space="preserve">
<style type="text/css">
	.st0{fill:#5900D3;}
	.st1{fill:#FFFFFF;}
</style>
<g id="Group_164312" transform="translate(-1131 -3163)">
	<circle id="Ellipse_865" class="st0" cx="1144" cy="3176" r="12"/>
	<path id="Union_63" class="st1" d="M1142.1,3182h-2.2c-0.2,0.6-0.8,1-1.4,1c-0.8,0-1.5-0.7-1.5-1.5s0.7-1.5,1.5-1.5
		c0.6,0,1.2,0.4,1.4,1h2.2c0.2-0.6,0.8-1,1.4-1c0.6,0,1.2,0.4,1.4,1h3.6c1.4,0,2.5-1.1,2.5-2.5s-1.1-2.5-2.5-2.5h-2.1l-3.4,3v-3
		h-3.5c-1.9,0-3.5-1.6-3.5-3.5c0-1.9,1.6-3.5,3.5-3.5h3.6c0.2-0.6,0.8-1,1.4-1c0.6,0,1.2,0.4,1.4,1h2.2c0.2-0.6,0.8-1,1.4-1
		c0.8,0,1.5,0.7,1.5,1.5s-0.7,1.5-1.5,1.5c-0.6,0-1.2-0.4-1.4-1h-2.2c-0.2,0.6-0.8,1-1.4,1c-0.6,0-1.2-0.4-1.4-1h-3.6
		c-1.4,0-2.5,1.1-2.5,2.5s1.1,2.5,2.5,2.5h3.5v-3l3.4,3h2.1c1.9,0,3.5,1.6,3.5,3.5s-1.6,3.5-3.5,3.5h-3.6c-0.2,0.6-0.8,1-1.4,1
		C1142.9,3183,1142.3,3182.6,1142.1,3182z"/>
</g>
</svg>
