<svg xmlns="http://www.w3.org/2000/svg" width="26" height="26" viewBox="0 0 26 26">
  <g id="Group_164295" data-name="Group 164295" transform="translate(-1138 -3036)">
    <g id="Group_164294" data-name="Group 164294">
      <circle id="Ellipse_749" data-name="Ellipse 749" cx="12" cy="12" r="12" transform="translate(1139 3037)" fill="#5900d3"/>
      <g id="Group_164291" data-name="Group 164291" transform="translate(714.984 2422)">
        <g id="Group_163569" data-name="Group 163569" transform="translate(0 49)">
          <path id="Path_148439" data-name="Path 148439" d="M-6034.483-2457h-4.5a1,1,0,0,1-1-1,1,1,0,0,1,1-1v-1a1,1,0,0,1,1-1,1,1,0,0,1,1,1v1h1.347l1.779-3.084-.562.065s-.15.017-.293.017c-.048,0-.088,0-.124,0a1.549,1.549,0,0,1-.434-.086l-.048-.014-1.116-.311-.146-.041-.639-.179a1.1,1.1,0,0,1-.766-1.189v-4.1a1.04,1.04,0,0,1,.629-1.083c.8-.335,3.139-1.292,4.6-1.849a1.941,1.941,0,0,1,.7-.146c.038,0,.074,0,.112,0a3.789,3.789,0,0,1,.83.219l.013,0c.333.12,2.023.728,2.735,1.021h.006a2.131,2.131,0,0,1,.649.387,4.621,4.621,0,0,1,.517.683c.454.7,1.831,2.837,1.831,2.837.551.855.551,1.482,0,1.859a.565.565,0,0,1-.338.1,1.337,1.337,0,0,1-1.063-.8l-.776-1.36a.2.2,0,0,0-.041-.058,3.987,3.987,0,0,0-3.4-1.9,4.006,4.006,0,0,0-3.294,1.73,4.438,4.438,0,0,0-.532.766.624.624,0,0,0-.038.457v.008l0,.018,0,.008c.009.018.02.04.035.064a.327.327,0,0,0,.23.134.873.873,0,0,0,.174.015,1.213,1.213,0,0,0,.255-.026l.295-.047a3,3,0,0,1,2.87-2.125,3,3,0,0,1,3,3,3,3,0,0,1-3,3,3,3,0,0,1-1.076-.2l-1.269,2.2h2.345a1,1,0,0,1,1,1,1,1,0,0,1-1,1Zm3.5-5a2,2,0,0,0,2-2,2,2,0,0,0-2-2,2,2,0,0,0-1.695.939l1.232-.2c.041,0,.083-.006.123-.006a1.24,1.24,0,0,1,1.171.776l.006.024c.006.02.012.039.019.058s.012.039.017.061l.012.047a.2.2,0,0,0,0,.029c0,.006,0,.01,0,.015a.6.6,0,0,1,.011.1v.006l.029.429v.006a.384.384,0,0,1,0,.1c0,.008,0,.015,0,.024v.023l-.006.047-.007.062-.009.061,0,.024a1.325,1.325,0,0,1-1.183.983l-.768.089A1.989,1.989,0,0,0-6030.984-2462Zm-11.5-1a.5.5,0,0,1-.5-.5v-5a.5.5,0,0,1,.5-.5h3a.5.5,0,0,1,.5.5v5a.5.5,0,0,1-.5.5Z" transform="translate(6469.984 3042)" fill="#fff" stroke="rgba(0,0,0,0)" stroke-width="1"/>
        </g>
      </g>
    </g>
    <rect id="Rectangle_149073" data-name="Rectangle 149073" width="26" height="26" transform="translate(1138 3036)" fill="none"/>
  </g>
</svg>
