<svg xmlns="http://www.w3.org/2000/svg" xmlns:xlink="http://www.w3.org/1999/xlink" width="26" height="26" viewBox="0 0 26 26">
    <defs>
        <path id="a" d="M10.487 17.8c0 1.076-.913 1.95-2.029 1.95-1.126 0-2.028-.874-2.028-1.95zM8.468.25c.548 0 .995.427.995.955v1.072c3.438.473 6.096 3.315 6.096 6.748v4.465l.244.23c.953.9.831 1.67.67 2.05-.123.303-.569 1.007-1.928 1.007H2.382c-1.37-.006-1.816-.708-1.937-1.01-.163-.38-.284-1.15.67-2.048l.243-.22V9.024c0-3.444 2.667-6.293 6.116-6.753V1.205c0-.528.447-.955.994-.955zm-.01 3.9c-2.8 0-5.072 2.187-5.072 4.875v5.295l-.547.506 11.24.001-.549-.518V9.026c0-2.688-2.282-4.875-5.072-4.875z"/>
    </defs>
    <g fill="none" fill-rule="evenodd" transform="translate(4 3)">
        <mask id="b" fill="#fff">
            <use xlink:href="#a"/>
        </mask>
        <use fill="#000" xlink:href="#a"/>
        <g fill="#FFF" mask="url(#b)">
            <path d="M-150.25-146h312v312h-312z"/>
        </g>
    </g>
</svg>
