<?xml version="1.0" encoding="utf-8"?>
<!-- Generator: Adobe Illustrator 26.1.0, SVG Export Plug-In . SVG Version: 6.00 Build 0)  -->
<svg version="1.1" id="Component_236_1" xmlns="http://www.w3.org/2000/svg" xmlns:xlink="http://www.w3.org/1999/xlink" x="0px"
	 y="0px" viewBox="0 0 26 26" style="enable-background:new 0 0 26 26;" xml:space="preserve">
<style type="text/css">
	.st0{fill:#5900D3;}
	.st1{fill:#FFFFFF;}
</style>
<g>
	<circle id="Ellipse_750" class="st0" cx="13" cy="13" r="12"/>
	<path id="Union_53" class="st1" d="M6,13c0-3.9,3.1-7,7-7s7,3.1,7,7s-3.1,7-7,7S6,16.9,6,13z M10.4,16c0.7,0.6,1.7,1,2.6,1
		c1,0,1.9-0.4,2.6-1h2.5c0.5-0.9,0.8-1.9,0.8-3c0-1.7-0.8-3.4-2.1-4.5L14.7,12c0.2,0.3,0.3,0.6,0.3,1c0,1.1-0.9,2-2,2s-2-0.9-2-2
		s0.9-2,2-2c0.1,0,0.2,0,0.3,0l1.6-1.5C14.3,9.2,13.7,9,13,9c-2.2,0-4,1.8-4,4H8c0-2.8,2.2-5,5-5c0.9,0,1.9,0.3,2.7,0.8l0.7-0.7
		C15.4,7.4,14.2,7,13,7c-3.3,0-6,2.7-6,6c0,1.1,0.3,2.1,0.8,3H10.4z M18,13h-1c0-0.5-0.1-1-0.3-1.5l0.6-1C17.8,11.2,18,12.1,18,13z"
		/>
</g>
</svg>
