<svg xmlns="http://www.w3.org/2000/svg" xmlns:xlink="http://www.w3.org/1999/xlink" width="24" height="24" viewBox="0 0 24 24">
    <defs>
        <path id="a" d="M18.222 4.8h-3.715C14.133 3.756 13.156 3 12 3c-1.156 0-2.133.756-2.507 1.8H5.778C4.8 4.8 4 5.61 4 6.6v12.6c0 .99.8 1.8 1.778 1.8h12.444C19.2 21 20 20.19 20 19.2V6.6c0-.99-.8-1.8-1.778-1.8zM12 4.8c.489 0 .889.405.889.9s-.4.9-.889.9a.897.897 0 0 1-.889-.9c0-.495.4-.9.889-.9zm1.778 12.6H7.556v-1.8h6.222v1.8zm2.666-3.6H7.556V12h8.888v1.8zm0-3.6H7.556V8.4h8.888v1.8z"/>
    </defs>
    <g fill="none" fill-rule="evenodd">
        <mask id="b" fill="#fff">
            <use xlink:href="#a"/>
        </mask>
        <use fill="#4A4A4A" fill-rule="nonzero" xlink:href="#a"/>
        <g fill="var(--color2)" mask="url(#b)">
            <path d="M-132.889-133.105h288v288h-288z"/>
        </g>
    </g>
</svg>
