<svg xmlns="http://www.w3.org/2000/svg" xmlns:xlink="http://www.w3.org/1999/xlink" width="51" height="44" viewBox="0 0 51 44">
    <defs>
        <path id="3wnq4nsfxa" d="M36.667 20.167v16.5H23.833v-16.5h12.834zm-16.5 7.333v9.167H7.333V27.5h12.834zm13.75-4.583h-7.334v11h7.334v-11zm-16.5 7.333h-7.334v3.667h7.334V30.25zm2.75-22.917v16.5H7.333v-16.5h12.834zm-2.75 2.75h-7.334v11h7.334v-11zm19.25-2.75V16.5H23.833V7.333h12.834zm-2.75 2.75h-7.334v3.667h7.334v-3.667z"/>
        <path id="0oyoki4duc" d="M10 0C4.48 0 0 4.48 0 10s4.48 10 10 10 10-4.48 10-10S15.52 0 10 0zm5 11h-4v4H9v-4H5V9h4V5h2v4h4v2z"/>
    </defs>
    <g fill="none" fill-rule="evenodd">
        <mask id="h0ro50m5bb" fill="#fff">
            <use xlink:href="#3wnq4nsfxa"/>
        </mask>
        <use fill="#979797" fill-rule="nonzero" xlink:href="#3wnq4nsfxa"/>
        <g fill="#007AFF" mask="url(#h0ro50m5bb)">
            <path d="M0 0H528V528H0z" transform="translate(-247.5 -242)"/>
        </g>
        <ellipse cx="39" cy="31.5" fill="#FFF" rx="7" ry="6.5"/>
        <g>
            <path d="M0 0L24 0 24 24 0 24z" transform="translate(27 19)"/>
            <g transform="translate(27 19) translate(2 2)">
                <mask id="kc40c07vpd" fill="#fff">
                    <use xlink:href="#0oyoki4duc"/>
                </mask>
                <use fill="#757575" fill-rule="nonzero" xlink:href="#0oyoki4duc"/>
                <g fill="#007AFF" mask="url(#kc40c07vpd)">
                    <path d="M0 0H288V288H0z" transform="translate(-132 -132)"/>
                </g>
            </g>
        </g>
    </g>
</svg>
