<svg xmlns="http://www.w3.org/2000/svg" width="26" height="26" viewBox="0 0 26 26">
  <g id="Group_164294" data-name="Group 164294" transform="translate(-1138 -2952)">
    <g id="Group_164293" data-name="Group 164293">
      <circle id="Ellipse_748" data-name="Ellipse 748" cx="12" cy="12" r="12" transform="translate(1139 2953)" fill="#5900d3"/>
      <g id="Group_164290" data-name="Group 164290" transform="translate(763 2338)">
        <g id="Group_163570" data-name="Group 163570" transform="translate(0 49)">
          <path id="Path_148440" data-name="Path 148440" d="M-6088-2371a1,1,0,0,1-1-1v-5a1,1,0,0,1,1-1h6a1,1,0,0,1,1,1v5a1,1,0,0,1-1,1Zm2.3-4.72a.99.99,0,0,0-.3.694,1.013,1.013,0,0,0,.283.719,1.017,1.017,0,0,0,.7.306,1.012,1.012,0,0,0,.717-.289.986.986,0,0,0,.3-.7,1,1,0,0,0-.289-.712.994.994,0,0,0-.711-.3h-.024A.952.952,0,0,0-6085.7-2375.717Zm.679-3.783a1.5,1.5,0,0,1-1.058-.459,1.5,1.5,0,0,1-.419-1.074,1.478,1.478,0,0,1,.445-1.046,1.483,1.483,0,0,1,1.055-.42,1.494,1.494,0,0,1,1.064.443,1.5,1.5,0,0,1,.436,1.068,1.5,1.5,0,0,1-.452,1.061,1.494,1.494,0,0,1-1.047.427Zm3.068-2.792a3.291,3.291,0,0,0-3.016-1.708,3.449,3.449,0,0,0-3.081,1.718.5.5,0,0,1-.668.231.5.5,0,0,1-.231-.668,4.425,4.425,0,0,1,3.979-2.281,4.28,4.28,0,0,1,3.925,2.291.5.5,0,0,1-.246.662.491.491,0,0,1-.209.046A.5.5,0,0,1-6081.955-2382.292Zm2.154-.961a4.994,4.994,0,0,0-1.159-1.374,6.009,6.009,0,0,0-4-1.373,6.187,6.187,0,0,0-4.048,1.377,5.091,5.091,0,0,0-1.2,1.383.424.424,0,0,1-.368.239.386.386,0,0,1-.222-.072.546.546,0,0,1-.142-.685,5.916,5.916,0,0,1,1.4-1.648,7,7,0,0,1,4.583-1.594,6.819,6.819,0,0,1,4.543,1.6,5.762,5.762,0,0,1,1.357,1.656.548.548,0,0,1-.161.682.383.383,0,0,1-.212.066A.415.415,0,0,1-6079.8-2383.254Z" transform="translate(6473 2957)" fill="#fff"/>
        </g>
      </g>
    </g>
    <rect id="Rectangle_149072" data-name="Rectangle 149072" width="26" height="26" transform="translate(1138 2952)" fill="none"/>
  </g>
</svg>
