<svg xmlns="http://www.w3.org/2000/svg" xmlns:xlink="http://www.w3.org/1999/xlink" width="30" height="32" viewBox="0 0 30 32">
    <defs>
        <path id="a" d="M0 0h32v32H0z"/>
    </defs>
    <g fill="none" fill-rule="evenodd" transform="translate(-1)">
        <mask id="b" fill="#fff">
            <use xlink:href="#a"/>
        </mask>
        <path fill="#FFF" fill-rule="nonzero" d="M30.667 7.333v19.334c0 2.933-2.4 5.333-5.334 5.333H15.6c-1.44 0-2.8-.573-3.8-1.587L1.333 19.773s1.68-1.64 1.734-1.666a1.58 1.58 0 0 1 1.053-.387c.293 0 .56.08.8.213.053.014 5.747 3.28 5.747 3.28V5.333c0-1.106.893-2 2-2 1.106 0 2 .894 2 2v9.334H16V2c0-1.107.893-2 2-2s2 .893 2 2v12.667h1.333V3.333c0-1.106.894-2 2-2 1.107 0 2 .894 2 2v11.334h1.334V7.333c0-1.106.893-2 2-2 1.106 0 2 .894 2 2z" mask="url(#b)"/>
    </g>
</svg>
