<svg xmlns="http://www.w3.org/2000/svg" xmlns:xlink="http://www.w3.org/1999/xlink" width="26" height="26" viewBox="0 0 26 26">
    <defs>
        <path id="a" d="M10.03.25l.852.813h2.174v.812h.842c.878 0 1.605.654 1.68 1.485l.005.14v14.625c0 .849-.68 1.548-1.54 1.619l-.145.006H2.102c-.878 0-1.605-.654-1.68-1.485l-.005-.14V3.5c0-.849.68-1.548 1.54-1.619l.145-.006h.842v-.813h2.174L5.961.25h4.07zM2.945 3.5h-.842v14.625h11.796V3.5h-.842v2.438H2.944V3.5zm8.475 4.333l.914.964-6.271 6.62-2.395-2.529.914-.964 1.48 1.564 5.358-5.655zM9.34 1.875H6.66l-.842.813H4.63v1.624h6.74V2.688h-1.188l-.842-.812zm-.496.813V3.5H7.157v-.813h1.686z"/>
    </defs>
    <g fill="none" fill-rule="evenodd" transform="translate(5 3)">
        <mask id="b" fill="#fff">
            <use xlink:href="#a"/>
        </mask>
        <use fill="#757575" xlink:href="#a"/>
        <g fill="#FFF" mask="url(#b)">
            <path d="M-148-150.333h312v312h-312z"/>
        </g>
    </g>
</svg>
