<svg xmlns="http://www.w3.org/2000/svg" xmlns:xlink="http://www.w3.org/1999/xlink" width="51" height="57" viewBox="0 0 51 57">
    <defs>
        <path id="prefix__a" d="M30.317 34.044c6.096 0 11.073 4.222 11.235 9.464l.004.263v2.779H9.444v-2.78c0-5.274 4.878-9.583 10.935-9.723l.304-.003h9.634zm0 3.126h-9.634c-4.34 0-7.88 2.693-8.023 6.043l-.004.21h25.688c0-3.446-3.596-6.253-8.027-6.253zm-9.634-12.506c0 2.587 2.168 4.69 4.817 4.69 2.65 0 4.817-2.103 4.817-4.69h3.21c0 4.31-3.596 7.816-8.027 7.816-4.431 0-8.028-3.506-8.028-7.816h3.211zM25.565 9.5c4.49 0 8.425 2.726 9.932 6.689 1.027.18 1.809 1.07 1.809 2.143v3.062c0 1.201-.981 2.176-2.191 2.176h-19.23c-1.21 0-2.19-.975-2.19-2.176v-3.062c0-1.04.733-1.908 1.714-2.124l.23-.038.166-.405c1.619-3.732 5.43-6.265 9.76-6.265zm.88 2.862v5.225c0 .455-.423.824-.945.824-.481 0-.879-.314-.937-.72l-.007-.104v-5.21c-.658.082-1.292.243-1.89.474v2.8c0 .488-.422.884-.944.884-.484 0-.883-.341-.938-.78l-.006-.104v-1.755c-1.323.993-2.304 2.392-2.73 4.021l-.275 1.055-1.245-.002v1.786h17.944V18.97h-1.116l-.275-1.054c-.44-1.681-1.471-3.118-2.858-4.115v1.85c0 .487-.424.883-.945.883-.485 0-.884-.341-.938-.78l-.007-.104v-2.849c-.598-.22-1.232-.37-1.888-.44z"/>
        <path id="prefix__c" d="M8.5 0C3.808 0 0 3.808 0 8.5S3.808 17 8.5 17 17 13.192 17 8.5 13.192 0 8.5 0z"/>
    </defs>
    <g fill="none" fill-rule="evenodd">
        <mask id="prefix__b" fill="#fff">
            <use xlink:href="#prefix__a"/>
        </mask>
        <use fill="#757575" xlink:href="#prefix__a"/>
        <g fill="#007AFF" mask="url(#prefix__b)">
            <path d="M0 0H272V273.6H0z" transform="translate(-115.222 -110.2)"/>
        </g>
        <g transform="translate(2 34)">
            <mask id="prefix__d" fill="#fff">
                <use xlink:href="#prefix__c"/>
            </mask>
            <use fill="#007AFF" fill-rule="nonzero" xlink:href="#prefix__c"/>
        </g>
    </g>
</svg>
