<?xml version="1.0" encoding="UTF-8"?>
<svg width="21px" height="25px" viewBox="0 0 21 25" version="1.1" xmlns="http://www.w3.org/2000/svg" xmlns:xlink="http://www.w3.org/1999/xlink">
    <!-- Generator: Sketch 61.2 (89653) - https://sketch.com -->
    <title>technician</title>
    <desc>Created with Sketch.</desc>
    <g id="Page-1" stroke="none" stroke-width="1" fill="none" fill-rule="evenodd">
        <g id="insights" transform="translate(-784.000000, -212.000000)" fill="#FFFFFF">
            <g id="Group-29" transform="translate(561.000000, 194.000000)">
                <g id="technician" transform="translate(223.000000, 18.000000)">
                    <g id="Group-Copy-2">
                        <g id="Group-19" transform="translate(0.407407, 0.000000)">
                            <path d="M10.3008936,15.0059077 C12.8273582,15.0059077 14.9270552,12.2020615 15.3622269,8.50541538 L5.2398229,8.50541538 C5.67525724,12.2020615 7.77495421,15.0059077 10.3008936,15.0059077" id="Fill-1"></path>
                            <g id="Group-16" transform="translate(0.218855, 14.123077)">
                                <path d="M2.25359596,10.8000277 C1.02319192,10.3023969 0.262626263,9.30879692 0.262626263,7.32298154 C0.262626263,4.74178154 2.56743434,0.882858462 5.93325253,0.212427692 C6.00652525,0.199135385 6.08058586,0.185566154 6.15438384,0.174766154 C6.16620202,0.173104615 6.17880808,0.172550769 6.19010101,0.169781538 C6.28569697,0.156766154 6.38155556,0.145135385 6.47820202,0.135996923 C6.47872727,0.145689231 6.48187879,0.156212308 6.48187879,0.166181538 C6.48319192,0.196366154 6.48818182,0.225166154 6.49159596,0.255350769 C6.50892929,0.423996923 6.5569899,0.588212308 6.63183838,0.746612308 C6.96671615,1.63553173 9.09899857,4.63381654 10.0951423,6.1431463 C11.0909059,4.63381654 13.2234131,1.63553173 13.5582909,0.746612308 C13.6331394,0.588212308 13.6812,0.423996923 13.6982707,0.255350769 C13.7019475,0.225166154 13.7066747,0.196366154 13.7079879,0.166181538 C13.7079879,0.156212308 13.711402,0.145689231 13.7119273,0.135996923 C13.8085737,0.145135385 13.9041697,0.156766154 13.9997657,0.169781538 C14.0110586,0.172550769 14.0236646,0.173104615 14.0354828,0.174766154 C14.1092808,0.185566154 14.183604,0.199135385 14.2568768,0.212427692 L14.2568768,0.212427692 L14.2563515,0.212427692 L10.4246263,9.09599692 L14.2568768,0.212427692 C17.5403456,0.866506492 19.8144297,4.55543817 19.9234073,7.13189776 L19.927503,7.32298154 C19.927503,9.30879692 19.1666747,10.3023969 17.9365333,10.8000277 L17.9365333,10.8000277 L2.25359596,10.8000277 Z" id="Combined-Shape"></path>
                            </g>
                            <path d="M16.3918269,6.64089231 C16.3918269,6.20224615 16.0548774,5.84723077 15.6383522,5.84723077 L15.4337663,5.84723077 C15.4337663,3.73707692 14.2881906,1.91132308 12.6181502,1.01796923 L12.1929582,3.56150769 C12.1593421,3.76310769 11.9930997,3.90433846 11.8058471,3.90433846 C11.782736,3.90433846 11.7593623,3.9024 11.7365138,3.89824615 C11.522736,3.85781538 11.38013,3.6432 11.4179481,3.41750769 L11.9030189,0.512584615 C11.7215441,0.204923077 11.3982512,0 11.0289987,0 L9.57194815,0 C9.20269562,0 8.87966532,0.204923077 8.69792795,0.512307692 L9.18326128,3.41723077 C9.22160471,3.64292308 9.07873603,3.85781538 8.864433,3.89796923 C8.84132189,3.90212308 8.8184734,3.90406154 8.79588754,3.90406154 C8.60863502,3.90406154 8.44186734,3.76283077 8.40877643,3.56123077 L7.98305926,1.01824615 C6.31328148,1.91104615 5.16823098,3.7368 5.16823098,5.84695385 L4.96259461,5.84695385 C4.54659461,5.84695385 4.20990774,6.20196923 4.20990774,6.64061538 C4.20990774,7.07898462 4.54633199,7.43455401 4.96259461,7.43455401 L15.6383522,7.43455401 C16.0548774,7.43483077 16.3918269,7.07953846 16.3918269,6.64089231" id="Fill-17"></path>
                        </g>
                    </g>
                </g>
            </g>
        </g>
    </g>
</svg>