<svg xmlns="http://www.w3.org/2000/svg" xmlns:xlink="http://www.w3.org/1999/xlink" width="24" height="24" viewBox="0 0 24 24">
    <defs>
        <path id="prefix__a" d="M11.05 12.918c3.203 0 5.823 2.189 5.945 4.919l.005.2V19.5H0v-1.463c0-2.755 2.543-5.01 5.717-5.115l.233-.004h5.1zm0 1.645h-5.1c-2.273 0-4.13 1.386-4.244 3.122l-.006.17h13.6c0-1.815-1.904-3.292-4.25-3.292zm-5.1-6.582c0 1.362 1.147 2.468 2.55 2.468 1.402 0 2.55-1.106 2.55-2.468h1.7c0 2.268-1.904 4.114-4.25 4.114S4.25 10.249 4.25 7.98h1.7zM8.534 0c2.378 0 4.46 1.435 5.258 3.52.544.095.958.564.958 1.128V6.26c0 .632-.52 1.145-1.16 1.145H3.41c-.64 0-1.16-.513-1.16-1.145V4.648c0-.546.388-1.004.908-1.118l.122-.02.087-.213C4.224 1.333 6.243 0 8.534 0zm.467 1.506L9 4.256c0 .24-.224.434-.5.434-.245 0-.45-.153-.492-.356L8 4.256V1.514c-.348.043-.683.128-1 .25v1.474c0 .256-.224.465-.5.465-.245 0-.45-.165-.492-.382L6 3.238v-.924c-.7.523-1.22 1.259-1.445 2.116l-.146.555H3.75v.94h9.5v-.94h-.59l-.147-.555c-.232-.885-.778-1.64-1.513-2.166v.974c0 .256-.224.465-.5.465-.245 0-.45-.165-.492-.382L10 3.238l.001-1.5c-.317-.115-.653-.194-1-.232z"/>
    </defs>
    <g fill="none" fill-rule="evenodd" transform="translate(4 2)">
        <mask id="prefix__b" fill="#fff">
            <use xlink:href="#prefix__a"/>
        </mask>
        <use fill="#757575" xlink:href="#prefix__a"/>
        <g fill="#4A4A4A" mask="url(#prefix__b)">
            <path d="M0 0H144V144H0z" transform="translate(-66 -63)"/>
        </g>
    </g>
</svg>
