<svg xmlns="http://www.w3.org/2000/svg" width="22" height="26" viewBox="0 0 22 26">
    <g fill="#FFF" fill-rule="evenodd">
        <path d="M10.3 15.006c2.527 0 4.627-2.804 5.062-6.5H5.24c.435 3.696 2.535 6.5 5.06 6.5" transform="translate(.407)"/>
        <path d="M2.472 24.923c-1.23-.498-1.99-1.491-1.99-3.477 0-2.581 2.304-6.44 5.67-7.11.073-.014.147-.027.221-.038.012-.002.025-.002.036-.005.096-.013.191-.025.288-.034 0 .01.004.02.004.03.001.03.006.06.01.09.017.168.065.332.14.49.335.89 2.467 3.888 3.463 5.397.996-1.51 3.128-4.507 3.463-5.396.075-.159.123-.323.14-.492.004-.03.009-.059.01-.089 0-.01.003-.02.004-.03.096.01.192.02.288.034.01.003.024.003.035.005.074.01.148.024.222.038l-3.833 8.883 3.833-8.883c3.283.654 5.557 4.343 5.666 6.919l.004.191c0 1.986-.76 2.98-1.99 3.477H2.471zM16.392 6.64c0-.438-.337-.793-.754-.793h-.204c0-2.11-1.146-3.936-2.816-4.829l-.425 2.544c-.034.201-.2.342-.387.342-.023 0-.047-.002-.07-.006-.213-.04-.356-.255-.318-.48l.485-2.905C11.722.205 11.398 0 11.029 0H9.572c-.37 0-.692.205-.874.512l.485 2.905c.039.226-.104.44-.319.481-.023.004-.046.006-.068.006-.187 0-.354-.141-.387-.343l-.426-2.543c-1.67.893-2.815 2.719-2.815 4.829h-.205c-.416 0-.753.355-.753.794 0 .438.336.794.753.794h10.675c.417 0 .754-.355.754-.794" transform="translate(.407)"/>
    </g>
</svg>
