<svg xmlns="http://www.w3.org/2000/svg" xmlns:xlink="http://www.w3.org/1999/xlink" width="24" height="25" viewBox="0 0 24 25">
    <defs>
        <path id="45badufqta" d="M5.5 2C6.88 2 8 3.12 8 4.5c0 1.088-.696 2.014-1.666 2.358v2.784C7.304 9.986 8 10.912 8 12s-.696 2.014-1.666 2.358v2.784C7.304 17.486 8 18.412 8 19.5 8 20.88 6.88 22 5.5 22S3 20.88 3 19.5c0-1.088.696-2.014 1.666-2.358v-2.784C3.696 14.014 3 13.088 3 12s.696-2.014 1.666-2.358V6.858C3.696 6.514 3 5.588 3 4.5 3 3.12 4.12 2 5.5 2zM16 6c3.3 0 6 2.7 6 6s-2.7 6-6 6-6-2.7-6-6 2.7-6 6-6zm.3 3h-.9v3.6l3.12 1.92.48-.78-2.7-1.62V9z"/>
    </defs>
    <g fill="none" fill-rule="evenodd">
        <g>
            <g>
                <g transform="translate(-1474 -121) translate(1468 115) translate(6 6.5)">
                    <mask id="593o13426b" fill="#fff">
                        <use xlink:href="#45badufqta"/>
                    </mask>
                    <use fill="#4A4A4A" xlink:href="#45badufqta"/>
                    <g fill="#007AFF" mask="url(#593o13426b)">
                        <path d="M0 0H288V288H0z" transform="translate(-132 -136)"/>
                    </g>
                </g>
            </g>
        </g>
    </g>
</svg>
