<svg xmlns="http://www.w3.org/2000/svg" xmlns:xlink="http://www.w3.org/1999/xlink" width="24" height="24" viewBox="0 0 24 24">
    <defs>
        <path id="a" d="M16 2h-1V0h-2v2H5V0H3v2H2C.89 2 .01 2.9.01 4L0 18a2 2 0 0 0 2 2h14c1.1 0 2-.9 2-2V4c0-1.1-.9-2-2-2zm0 16H2V7h14v11zM4 9h5v5H4V9z"/>
    </defs>
    <g fill="none" fill-rule="evenodd" transform="translate(3 1)">
        <mask id="b" fill="#fff">
            <use xlink:href="#a"/>
        </mask>
        <g fill="#4A4A4A" mask="url(#b)">
            <path d="M-35-34H65v95H-35z"/>
        </g>
    </g>
</svg>
