<svg xmlns="http://www.w3.org/2000/svg" width="19" height="17" viewBox="0 0 19 17">
    <g fill="none" fill-rule="evenodd">
        <path d="M0-1h19v19H0z"/>
        <path fill="#000" fill-rule="nonzero" d="M10.189 10.93L8.178 8.943l.024-.023a13.87 13.87 0 0 0 2.937-5.17h2.32V2.167H7.916V.583H6.333v1.584H.792v1.575h8.843a12.44 12.44 0 0 1-2.51 4.243 12.386 12.386 0 0 1-1.829-2.652H3.713c.578 1.29 1.37 2.51 2.36 3.61l-4.03 3.975 1.124 1.124 3.958-3.959 2.462 2.462.602-1.615zm4.457-4.013h-1.584l-3.562 9.5h1.583l.887-2.375h3.76l.895 2.375h1.583l-3.562-9.5zm-2.074 5.541l1.282-3.428 1.283 3.428h-2.565z"/>
    </g>
</svg>
