<?xml version="1.0" encoding="utf-8"?>
<!-- Generator: Adobe Illustrator 26.0.0, SVG Export Plug-In . SVG Version: 6.00 Build 0)  -->
<svg version="1.1" id="Layer_1" xmlns="http://www.w3.org/2000/svg" xmlns:xlink="http://www.w3.org/1999/xlink" x="0px" y="0px"
	 viewBox="0 0 200 64" style="enable-background:new 0 0 200 64;" xml:space="preserve">
<style type="text/css">
	.st0{fill:#FFFFFF;}
	.st1{fill:#050709;}
	.st2{fill:none;}
	.st3{fill:#1268FB;}
	.st4{fill:#FFF1A1;}
	.st5{fill:#1A1818;}
	.st6{opacity:0.4;fill:#FFE961;enable-background:new    ;}
</style>
<g id="Group_162104" transform="translate(-248 -56)">
	<g id="Group_162102" transform="translate(34)">
		<rect id="Rectangle_147986" x="308.5" y="113" class="st0" width="11.3" height="7"/>
		<g id="Path_148297">
			<polygon class="st1" points="320.3,120 319.6,120 319.6,112.9 308.9,112.9 308.9,120 308.1,120 308.1,112.2 320.3,112.2 			"/>
		</g>
		<g id="Ellipse_176" transform="translate(427 87)">
			<circle class="st2" cx="-27" cy="13.5" r="13.5"/>
			<g>
				<path class="st1" d="M-27,27c-7.4,0-13.5-6.1-13.5-13.5S-34.4,0-27,0s13.5,6.1,13.5,13.5S-19.6,27-27,27z M-27,1
					c-6.9,0-12.5,5.6-12.5,12.5S-33.9,26-27,26s12.5-5.6,12.5-12.5S-20.1,1-27,1z"/>
			</g>
		</g>
		<g id="Path_148299">
			<path class="st3" d="M406.8,105.9c-0.1,0-0.2,0-0.4-0.1l-7.3-2.7c-0.5-0.2-0.8-0.8-0.6-1.3c0.2-0.5,0.8-0.8,1.3-0.6l7.3,2.7
				c0.5,0.2,0.8,0.8,0.6,1.3C407.6,105.7,407.2,105.9,406.8,105.9z"/>
		</g>
		<g id="Path_148298">
			<path class="st1" d="M399.6,103.2c-0.6,0-1-0.4-1-1V91.7c0-0.6,0.4-1,1-1s1,0.4,1,1v10.5C400.6,102.8,400.1,103.2,399.6,103.2z"
				/>
		</g>
		<g id="Group_162099" transform="translate(-1687.432 -1651.209)">
			<g id="Group_162098" transform="translate(2002.943 1712.419)">
				<path id="Path_148278" class="st3" d="M-38.1,0.3h76.8c0.8,0,1.4,0.6,1.4,1.4c0,0,0,0,0,0.1l-0.2,49.7c0,1-0.8,1.8-1.8,1.8
					h-76.8c-0.8,0-1.4-0.6-1.4-1.4c0,0,0,0,0-0.1l0.2-49.7C-39.9,1.1-39.1,0.4-38.1,0.3z"/>
				<path id="Path_148279" class="st0" d="M-38.6,0.3h77.2c0.8,0,1.4,0.6,1.4,1.4c0,0,0,0,0,0.1V2h-76.3c-1,0-1.8,0.8-1.8,1.8
					l-0.2,49.4h-0.8c-0.8,0-1-1-1-1.8L-39.9,2C-39.9,1-39.5,0.3-38.6,0.3z"/>
				<g id="Group_162092" transform="translate(0 0)">
					<path id="Path_148280" class="st1" d="M38,53.6h-76.8c-0.9,0-1.7-0.7-1.7-1.7v-0.1l0.2-49.6c0-0.6,0.2-1.1,0.7-1.5
						c0.4-0.5,0.9-0.7,1.5-0.7h76.8c0.9,0,1.7,0.7,1.7,1.7v0.1l-0.2,49.7c0,0.6-0.2,1.1-0.7,1.5C39.1,53.3,38.6,53.6,38,53.6z
						 M-38.2,0.7c-0.4,0-0.7,0.2-1,0.4c-0.3,0.3-0.4,0.6-0.4,1l-0.2,49.7c0,0.6,0.5,1.1,1.1,1.1c0,0,0,0,0.1,0h76.8
						c0.8,0,1.4-0.6,1.4-1.4l0.2-49.7c0-0.6-0.5-1.1-1.1-1.1c0,0,0,0-0.1,0L-38.2,0.7z"/>
				</g>
				<path id="Path_148281" class="st0" d="M36.3,49.7l0.2-45.8h-72.9l-0.2,45.8H36.3z"/>
				<g id="Group_162093" transform="translate(3.568 3.539)">
					<path id="Path_148282" class="st1" d="M33.1,46.5h-73.6L-40.3,0h73.6L33.1,46.5z M-39.8,45.8h72.2l0.2-45.2h-72.2L-39.8,45.8z"
						/>
				</g>
				
					<ellipse id="Ellipse_173" transform="matrix(0.5902 -0.8073 0.8073 0.5902 -9.5927 0.5834)" class="st4" cx="-4.2" cy="9.7" rx="2.4" ry="2.5"/>
				
					<ellipse id="Ellipse_174" transform="matrix(0.5901 -0.8073 0.8073 0.5901 -14.6116 -9.3807)" class="st3" cx="-16.5" cy="9.7" rx="2.4" ry="2.5"/>
				<g id="Group_162095" transform="translate(8.802 6.946)">
					<path id="Path_148284" class="st1" d="M-37.6,5.6c-1.6,0-2.8-1.2-2.9-2.8c0-0.7,0.3-1.5,0.8-2s1.2-0.8,2-0.8
						c1.5,0,2.8,1.2,2.9,2.8c0,0.7-0.3,1.5-0.8,2C-36.2,5.3-36.9,5.6-37.6,5.6z M-37.8,0.7c-0.6,0-1.1,0.2-1.5,0.6
						c-0.3,0.4-0.5,0.9-0.5,1.4c0.1,1.2,1,2.2,2.3,2.2c0.5,0,1.1-0.2,1.5-0.6c0.3-0.4,0.5-0.9,0.5-1.5C-35.6,1.6-36.6,0.7-37.8,0.7
						L-37.8,0.7z"/>
				</g>
				<g id="Group_162096" transform="translate(21.154 6.946)">
					<path id="Path_148285" class="st1" d="M-37.6,5.6c-1.6,0-2.8-1.2-2.9-2.8c0-0.7,0.3-1.5,0.8-2s1.2-0.8,2-0.8
						c1.5,0,2.8,1.2,2.9,2.8c0,0.7-0.3,1.5-0.8,2C-36.2,5.3-36.9,5.6-37.6,5.6z M-37.8,0.7c-0.6,0-1.1,0.2-1.5,0.6
						c-0.3,0.4-0.5,0.9-0.5,1.4c0.1,1.2,1,2.2,2.3,2.2c0.6,0,1.1-0.2,1.5-0.6c0.3-0.4,0.5-0.9,0.5-1.5C-35.6,1.6-36.6,0.7-37.8,0.7
						L-37.8,0.7z"/>
				</g>
				<g id="Group_162097" transform="translate(33.507 6.946)">
					<path id="Path_148286" class="st1" d="M-37.6,5.6c-1.6,0-2.8-1.2-2.9-2.8c0-0.7,0.3-1.5,0.8-2s1.2-0.8,2-0.8
						c1.5,0,2.8,1.2,2.9,2.8c0,0.7-0.3,1.5-0.8,2C-36.2,5.3-36.9,5.6-37.6,5.6z M-37.8,0.7c-0.6,0-1.1,0.2-1.5,0.6
						c-0.3,0.4-0.5,0.9-0.5,1.4c0,1.2,1,2.2,2.3,2.2c0.6,0,1.1-0.2,1.5-0.6c0.3-0.4,0.5-0.9,0.5-1.5l0,0
						C-35.6,1.6-36.6,0.7-37.8,0.7L-37.8,0.7z"/>
				</g>
				<path id="Path_148288" class="st1" d="M28.6,45.6H6.9c-0.2,0-0.3-0.1-0.3-0.3c0,0,0,0,0-0.1c0-0.2,0.2-0.3,0.4-0.3h21.7
					c0.2,0,0.3,0.1,0.3,0.3c0,0,0,0,0,0.1C29,45.4,28.8,45.6,28.6,45.6z"/>
				<g id="Rectangle_147987" transform="translate(5.488 14.897)">
					<g>
						<path class="st1" d="M-28.5,12h-10c-1.1,0-2-0.9-2-2V2c0-1.1,0.9-2,2-2h10c1.1,0,2,0.9,2,2v8C-26.5,11.1-27.4,12-28.5,12z
							 M-38.5,0.7c-0.7,0-1.3,0.6-1.3,1.3v8c0,0.7,0.6,1.3,1.3,1.3h10c0.7,0,1.3-0.6,1.3-1.3V2c0-0.7-0.6-1.3-1.3-1.3
							C-28.5,0.7-38.5,0.7-38.5,0.7z"/>
					</g>
				</g>
				<g id="Rectangle_147994" transform="translate(5.488 29.897)">
					<g>
						<path class="st1" d="M-28.5,12h-10c-1.1,0-2-0.9-2-2V2c0-1.1,0.9-2,2-2h10c1.1,0,2,0.9,2,2v8C-26.5,11.1-27.4,12-28.5,12z
							 M-38.5,0.7c-0.7,0-1.3,0.6-1.3,1.3v8c0,0.7,0.6,1.3,1.3,1.3h10c0.7,0,1.3-0.6,1.3-1.3V2c0-0.7-0.6-1.3-1.3-1.3
							C-28.5,0.7-38.5,0.7-38.5,0.7z"/>
					</g>
				</g>
				<g id="Rectangle_147988" transform="translate(23.488 14.897)">
					<g>
						<path class="st1" d="M-28.5,12h-10c-1.1,0-2-0.9-2-2V2c0-1.1,0.9-2,2-2h10c1.1,0,2,0.9,2,2v8C-26.5,11.1-27.4,12-28.5,12z
							 M-38.5,0.7c-0.7,0-1.3,0.6-1.3,1.3v8c0,0.7,0.6,1.3,1.3,1.3h10c0.7,0,1.3-0.6,1.3-1.3V2c0-0.7-0.6-1.3-1.3-1.3
							C-28.5,0.7-38.5,0.7-38.5,0.7z"/>
					</g>
				</g>
				<g id="Rectangle_147993" transform="translate(23.488 29.897)">
					<g>
						<path class="st1" d="M-28.5,12h-10c-1.1,0-2-0.9-2-2V2c0-1.1,0.9-2,2-2h10c1.1,0,2,0.9,2,2v8C-26.5,11.1-27.4,12-28.5,12z
							 M-38.5,0.7c-0.7,0-1.3,0.6-1.3,1.3v8c0,0.7,0.6,1.3,1.3,1.3h10c0.7,0,1.3-0.6,1.3-1.3V2c0-0.7-0.6-1.3-1.3-1.3
							C-28.5,0.7-38.5,0.7-38.5,0.7z"/>
					</g>
				</g>
				<g id="Rectangle_147989" transform="translate(42.488 14.897)">
					<g>
						<path class="st1" d="M-28.5,12h-10c-1.1,0-2-0.9-2-2V2c0-1.1,0.9-2,2-2h10c1.1,0,2,0.9,2,2v8C-26.5,11.1-27.4,12-28.5,12z
							 M-38.5,0.7c-0.7,0-1.3,0.6-1.3,1.3v8c0,0.7,0.6,1.3,1.3,1.3h10c0.7,0,1.3-0.6,1.3-1.3V2c0-0.7-0.6-1.3-1.3-1.3
							C-28.5,0.7-38.5,0.7-38.5,0.7z"/>
					</g>
				</g>
				<g id="Rectangle_147992" transform="translate(42.488 29.897)">
					<g>
						<path class="st1" d="M-28.5,12h-10c-1.1,0-2-0.9-2-2V2c0-1.1,0.9-2,2-2h10c1.1,0,2,0.9,2,2v8C-26.5,11.1-27.4,12-28.5,12z
							 M-38.5,0.7c-0.7,0-1.3,0.6-1.3,1.3v8c0,0.7,0.6,1.3,1.3,1.3h10c0.7,0,1.3-0.6,1.3-1.3V2c0-0.7-0.6-1.3-1.3-1.3
							C-28.5,0.7-38.5,0.7-38.5,0.7z"/>
					</g>
				</g>
				<g id="Rectangle_147990" transform="translate(60.488 14.897)">
					<g>
						<path class="st1" d="M-28.5,12h-10c-1.1,0-2-0.9-2-2V2c0-1.1,0.9-2,2-2h10c1.1,0,2,0.9,2,2v8C-26.5,11.1-27.4,12-28.5,12z
							 M-38.5,0.7c-0.7,0-1.3,0.6-1.3,1.3v8c0,0.7,0.6,1.3,1.3,1.3h10c0.7,0,1.3-0.6,1.3-1.3V2c0-0.7-0.6-1.3-1.3-1.3
							C-28.5,0.7-38.5,0.7-38.5,0.7z"/>
					</g>
				</g>
				<g id="Ellipse_177" transform="translate(-36.512 15.79)">
					<circle class="st2" cx="-37.5" cy="3" r="3"/>
					<g>
						<path class="st3" d="M-37.5,6c-1.7,0-3-1.3-3-3s1.3-3,3-3s3,1.3,3,3S-35.8,6-37.5,6z M-37.5,1c-1.1,0-2,0.9-2,2s0.9,2,2,2
							s2-0.9,2-2S-36.4,1-37.5,1z"/>
					</g>
				</g>
				<g id="Ellipse_178" transform="translate(-48.512 15.79)">
					<circle class="st2" cx="-37.5" cy="3" r="3"/>
					<g>
						<path class="st1" d="M-37.5,6c-1.7,0-3-1.3-3-3s1.3-3,3-3s3,1.3,3,3S-35.8,6-37.5,6z M-37.5,1c-1.1,0-2,0.9-2,2s0.9,2,2,2
							s2-0.9,2-2S-36.4,1-37.5,1z"/>
					</g>
				</g>
				<g id="Ellipse_179" transform="translate(-60.512 15.79)">
					<circle class="st2" cx="-37.5" cy="3" r="3"/>
					<g>
						<path class="st0" d="M-37.5,6c-1.7,0-3-1.3-3-3s1.3-3,3-3s3,1.3,3,3S-35.8,6-37.5,6z M-37.5,1c-1.1,0-2,0.9-2,2s0.9,2,2,2
							s2-0.9,2-2S-36.4,1-37.5,1z"/>
					</g>
				</g>
			</g>
			<g id="decor" transform="translate(2090.089 1715.657)">
				<path id="Path_148289" class="st1" d="M-39.1,2.8c-0.8,0-1.4-0.6-1.4-1.4S-39.9,0-39.1,0s1.4,0.6,1.4,1.4l0,0
					C-37.7,2.2-38.4,2.8-39.1,2.8z"/>
				<path id="Path_148290" class="st1" d="M-24.3,2.8c-0.8,0-1.4-0.6-1.4-1.4S-25,0-24.3,0c0.8,0,1.4,0.6,1.4,1.4l0,0
					C-22.9,2.2-23.5,2.8-24.3,2.8z"/>
				<path id="Path_148291" class="st1" d="M-9.4,2.8c-0.8,0-1.4-0.6-1.4-1.4S-10.2,0-9.4,0S-8,0.6-8,1.4l0,0
					C-8.1,2.2-8.7,2.8-9.4,2.8z"/>
				<path id="Path_148292" class="st1" d="M-39.1,17.4c-0.8,0-1.4-0.6-1.4-1.4s0.6-1.4,1.4-1.4s1.4,0.6,1.4,1.4l0,0
					C-37.7,16.8-38.4,17.4-39.1,17.4z"/>
				<ellipse id="Ellipse_175" class="st1" cx="-24.3" cy="16.1" rx="1.4" ry="1.4"/>
				<path id="Path_148293" class="st1" d="M-9.4,17.4c-0.8,0-1.4-0.6-1.4-1.4s0.6-1.4,1.4-1.4S-8,15.2-8,16l0,0
					C-8.1,16.8-8.7,17.4-9.4,17.4z"/>
				<path id="Path_148294" class="st1" d="M-39.1,32.1c-0.8,0-1.4-0.6-1.4-1.4s0.6-1.4,1.4-1.4s1.4,0.6,1.4,1.4l0,0
					C-37.7,31.5-38.4,32.1-39.1,32.1z"/>
				<path id="Path_148295" class="st1" d="M-24.3,32.1c-0.8,0-1.4-0.6-1.4-1.4s0.6-1.4,1.4-1.4s1.4,0.6,1.4,1.4l0,0
					C-22.9,31.5-23.5,32.1-24.3,32.1z"/>
				<path id="Path_148296" class="st1" d="M-9.4,32.1c-0.8,0-1.4-0.6-1.4-1.4s0.6-1.4,1.4-1.4S-8,29.9-8,30.7l0,0
					C-8.1,31.5-8.7,32.1-9.4,32.1z"/>
			</g>
		</g>
		<g id="Group_162100" transform="translate(281.998 56)">
			<g id="Group_162046" transform="translate(0 0)">
				<g id="Group_162045" transform="translate(0 5.168)">
					<g id="Group_162044">
						<path class="st5" d="M10.6,15.3C8.5,5-1.5-1.7-11.8,0.4s-17,12.1-14.9,22.4c0.6,3,1.9,5.8,3.7,8l-4.4,4.4l3.1,3.1l4.4-4.4
							c4.2,3.3,9.8,4.9,15.5,3.7C6,35.6,12.7,25.6,10.6,15.3z M-4.7,35.8C-14,37.7-23,31.7-24.9,22.4l0,0
							c-1.9-9.3,4.1-18.3,13.4-20.2S6.8,6.3,8.7,15.6S4.6,34-4.7,35.8z"/>
						<g id="Group_162043" transform="translate(0 30.094)">
							<path id="Path_148209" class="st5" d="M-37.7,21c0.5,0.5,1.3,0.5,1.9,0l0,0l6.1-6.1c0.5-0.5,0.5-1.3,0-1.9l-2.4-2.4
								c-0.5-0.5-1.3-0.5-1.9,0l-6.1,6.1c-0.5,0.5-0.5,1.3,0,1.9l0,0L-37.7,21z"/>
							
								<rect id="Rectangle_147978" x="-40.6" y="8.8" transform="matrix(0.7078 -0.7064 0.7064 0.7078 -17.3568 -18.3142)" class="st3" width="19.5" height="6.1"/>
						</g>
					</g>
				</g>
				<circle id="Ellipse_168" class="st6" cx="-8.1" cy="24.2" r="17.1"/>
			</g>
		</g>
	</g>
</g>
</svg>
