<svg xmlns="http://www.w3.org/2000/svg" width="26" height="26" viewBox="0 0 26 26">
    <g fill="none" fill-rule="evenodd">
        <path d="M-2-2h30v30H-2z"/>
        <path fill="#FFF" fill-rule="nonzero" d="M12.21 2.737V.368C9.527.628 7.083 1.67 5.106 3.526l1.58 1.58c1.8-1.12 3.576-1.875 5.526-2.37zm9.474.79C19.708 1.67 17.264.628 14.58.367v2.369c1.95.494 3.726 1.25 5.526 2.368l1.58-1.579zm1.58 8.684h2.368c-.26-2.685-1.302-5.13-3.158-7.106l-1.58 1.58c1.12 1.8 1.875 3.576 2.37 5.526zM5.104 6.684L3.526 5.105C1.67 7.082.63 9.526.368 12.211h2.369c.494-1.95 1.25-3.727 2.368-5.527zM2.737 14.58H.368c.26 2.684 1.302 5.129 3.158 7.105l1.58-1.579c-1.12-1.8-1.875-3.576-2.37-5.526zM16.947 13A3.942 3.942 0 0 0 13 9.053 3.942 3.942 0 0 0 9.053 13 3.942 3.942 0 0 0 13 16.947 3.942 3.942 0 0 0 16.947 13zm3.948 7.105l1.579 1.58c1.856-1.977 2.897-4.435 3.158-7.106h-2.369c-.494 1.937-1.25 3.713-2.368 5.526zm-6.316 3.158v2.369c2.684-.26 5.129-1.302 7.105-3.158l-1.579-1.58c-1.8 1.12-3.576 1.875-5.526 2.37zm-9.474-.79c1.977 1.857 4.434 2.898 7.106 3.159v-2.369c-1.95-.494-3.727-1.25-5.527-2.368l-1.579 1.579z"/>
    </g>
</svg>
