<svg xmlns="http://www.w3.org/2000/svg" xmlns:xlink="http://www.w3.org/1999/xlink" width="24" height="24" viewBox="0 0 24 24">
    <defs>
        <path id="prefix__a" d="M10.936 0c3.942 0 7.485 2.126 10.6 6.301l.336.449-.335.449C18.42 11.374 14.878 13.5 10.936 13.5 6.993 13.5 3.45 11.374.335 7.199L0 6.75l.335-.449C3.45 2.126 6.993 0 10.935 0zm0 1.5c-3.214 0-6.166 1.654-8.877 5.025l-.178.225.178.225c2.624 3.262 5.473 4.916 8.567 5.02l.31.005c3.214 0 6.165-1.654 8.877-5.025l.177-.225-.177-.225c-2.624-3.262-5.473-4.916-8.567-5.02zm0 1.5c2.07 0 3.75 1.679 3.75 3.75 0 2.071-1.68 3.75-3.75 3.75-2.071 0-3.75-1.679-3.75-3.75 0-2.071 1.679-3.75 3.75-3.75zm0 1.5c-1.243 0-2.25 1.007-2.25 2.25S9.693 9 10.936 9c1.242 0 2.25-1.007 2.25-2.25s-1.008-2.25-2.25-2.25z"/>
    </defs>
    <g fill="none" fill-rule="evenodd" transform="translate(1 5)">
        <mask id="prefix__b" fill="#fff">
            <use xlink:href="#prefix__a"/>
        </mask>
        <use fill="#979797" fill-rule="nonzero" xlink:href="#prefix__a"/>
        <g fill="#4A4A4A" mask="url(#prefix__b)">
            <path d="M0 0H288V288H0z" transform="translate(-132 -136)"/>
        </g>
    </g>
</svg>
