<svg xmlns="http://www.w3.org/2000/svg" xmlns:xlink="http://www.w3.org/1999/xlink" width="24" height="24" viewBox="0 0 24 24">
    <defs>
        <path id="mkxtwxoqka" d="M17.772 21.5L23.5 24l-5.728 2.5-.272-.237L18.647 24 17.5 21.737l.272-.237zm-1.722-3.417c2.885 0 5.297 1.8 5.837 4.177l-2.24-.95c-.752-.936-2.082-1.56-3.597-1.56h-5.1c-2.273 0-4.13 1.404-4.244 3.162l-.006.171h10.299v1.666L5 24.75v-1.481c0-2.79 2.543-5.075 5.717-5.182l.233-.004h5.1zm-5.1-5c0 1.38 1.148 2.5 2.55 2.5s2.55-1.12 2.55-2.5h1.7c0 2.298-1.904 4.167-4.25 4.167s-4.25-1.87-4.25-4.167h1.7zM13.534 5c2.378 0 4.46 1.453 5.258 3.566.544.095.958.57.958 1.142v1.632c0 .64-.52 1.16-1.16 1.16H8.41c-.64 0-1.16-.52-1.16-1.16V9.708c0-.554.388-1.017.908-1.132l.122-.02.087-.216C9.224 6.35 11.243 5 13.534 5zm.467 1.525L14 9.311c0 .242-.224.439-.5.439-.245 0-.45-.155-.492-.36L13 9.31V6.534c-.348.044-.683.13-1 .253v1.493c0 .26-.224.471-.5.471-.245 0-.45-.167-.492-.386L11 8.279v-.935c-.7.529-1.22 1.275-1.445 2.143l-.146.562H8.75V11h9.5v-.952l-.59.001-.147-.562c-.232-.896-.778-1.662-1.513-2.194v.986c0 .26-.224.471-.5.471-.245 0-.45-.167-.492-.386L15 8.279l.001-1.518c-.317-.117-.653-.198-1-.236z"/>
    </defs>
    <g fill="none" fill-rule="evenodd" transform="translate(-2 -3)">
        <mask id="kfbc1ceolb" fill="#fff">
            <use xlink:href="#mkxtwxoqka"/>
        </mask>
        <use fill="#757575" xlink:href="#mkxtwxoqka"/>
        <g fill="#4A4A4A" mask="url(#kfbc1ceolb)">
            <path d="M0 0H144V144H0z" transform="translate(-62.75 -56)"/>
        </g>
    </g>
</svg>
