<svg xmlns="http://www.w3.org/2000/svg" width="28" height="23" viewBox="0 0 28 23">
    <g fill="none" fill-rule="evenodd">
        <g>
            <rect width="20" height="22.222" fill="var(--color2)" fill-rule="nonzero" rx="3.333"/>
            <g fill="#FFF">
                <path d="M9.776 13.338c1.943 0 3.558-2.077 3.893-4.815H5.882c.335 2.738 1.95 4.815 3.894 4.815"/>
                <path d="M10.04 19.42l2.947-6.579c2.589.497 4.362 3.355 4.362 5.267 0 1.471-.585 2.207-1.531 2.576H3.754c-.947-.369-1.532-1.105-1.532-2.576 0-1.912 1.773-4.77 4.362-5.267l2.947 6.58-2.947-6.58c.057-.01.114-.02.17-.028.01-.001.02-.001.028-.003.073-.01.147-.019.221-.026 0 .008.003.015.003.023.001.022.005.044.008.066.013.125.05.246.108.364.257.658 1.897 2.879 2.664 3.997.766-1.118 2.406-3.339 2.664-3.997a1.08 1.08 0 0 0 .107-.364c.003-.022.007-.044.008-.066 0-.008.002-.015.003-.023.074.007.148.016.221.026.009.002.019.002.028.003.056.008.114.018.17.028l-2.947 6.58zM14.46 7.141a.583.583 0 0 0-.579-.587h-.157a4.015 4.015 0 0 0-2.166-3.578l-.327 1.884a.304.304 0 0 1-.351.25.307.307 0 0 1-.245-.356l.373-2.152a.788.788 0 0 0-.672-.38H9.215a.788.788 0 0 0-.672.38l.373 2.152a.306.306 0 0 1-.298.36.304.304 0 0 1-.298-.254l-.327-1.884a4.014 4.014 0 0 0-2.166 3.577H5.67a.583.583 0 0 0-.579.588c0 .325.259.588.58.588h8.211c.32 0 .58-.263.58-.588"/>
            </g>
        </g>
        <path fill="var(--color2)" fill-rule="nonzero" d="M24.5 1a3.501 3.501 0 0 1 0 7 3.501 3.501 0 0 1 0-7zm0 .778a2.723 2.723 0 0 0 0 5.444 2.723 2.723 0 0 0 0-5.444zm.905.828a2.1 2.1 0 0 0-2.8 2.8l2.8-2.8zM21.622 4.5A2.877 2.877 0 0 1 24.5 1.622c.649 0 1.265.217 1.765.609l.344.27-4.107 4.108-.271-.344a2.847 2.847 0 0 1-.609-1.765zM24.5 6.6a2.1 2.1 0 0 0 1.894-3.005l-2.8 2.799c.279.134.586.206.906.206zm0 .778a2.847 2.847 0 0 1-1.765-.609l-.344-.27 4.107-4.108.271.344c.392.5.609 1.116.609 1.765A2.877 2.877 0 0 1 24.5 7.378z"/>
    </g>
</svg>
