<svg xmlns="http://www.w3.org/2000/svg" width="20" height="22" viewBox="0 0 20 22">
    <g fill="none" fill-rule="evenodd">
        <rect width="20" height="22" fill="#4A4A4A" fill-rule="nonzero" rx="3.333"/>
        <g fill="#FFF">
            <path d="M9.776 13.204c1.943 0 3.558-2.056 3.893-4.767H5.882c.335 2.711 1.95 4.767 3.894 4.767"/>
            <path d="M10.04 19.227l2.947-6.514c2.589.491 4.362 3.321 4.362 5.214 0 1.456-.585 2.185-1.531 2.55H3.754c-.947-.365-1.532-1.094-1.532-2.55 0-1.893 1.773-4.723 4.362-5.214l2.947 6.513-2.947-6.513c.057-.01.114-.02.17-.028l.028-.004c.073-.01.147-.018.221-.024 0 .007.003.014.003.022.001.022.005.043.008.065.013.124.05.244.108.36.257.652 1.897 2.85 2.664 3.958.766-1.107 2.406-3.306 2.664-3.958.057-.116.094-.236.107-.36.003-.022.007-.043.008-.065 0-.008.002-.015.003-.022.074.006.148.015.221.024l.028.004c.056.008.114.018.17.028l-2.947 6.513zM14.46 7.07a.58.58 0 0 0-.579-.582h-.157a3.97 3.97 0 0 0-2.166-3.541l-.327 1.865a.303.303 0 1 1-.596-.106l.373-2.13a.79.79 0 0 0-.672-.376H9.215a.79.79 0 0 0-.672.376l.373 2.13a.304.304 0 0 1-.298.357.303.303 0 0 1-.298-.251l-.327-1.865a3.97 3.97 0 0 0-2.166 3.54H5.67a.58.58 0 0 0-.579.583.58.58 0 0 0 .58.582h8.211c.32 0 .58-.26.58-.582"/>
        </g>
    </g>
</svg>
