<svg xmlns="http://www.w3.org/2000/svg" xmlns:xlink="http://www.w3.org/1999/xlink" width="24" height="24" viewBox="0 0 24 24">
    <defs>
        <path id="prefix__a" d="M12.772 16.5L18.5 19l-5.728 2.5-.272-.237L13.647 19 12.5 16.737l.272-.237zm-1.722-3.417c2.885 0 5.297 1.8 5.837 4.177l-2.24-.95c-.752-.936-2.082-1.56-3.597-1.56h-5.1c-2.273 0-4.13 1.404-4.244 3.162l-.006.171h10.299v1.666L0 19.75v-1.481c0-2.79 2.543-5.075 5.717-5.182l.233-.004h5.1zm-5.1-5c0 1.38 1.147 2.5 2.55 2.5 1.402 0 2.55-1.12 2.55-2.5h1.7c0 2.298-1.904 4.167-4.25 4.167s-4.25-1.87-4.25-4.167h1.7zM8.534 0c2.378 0 4.46 1.453 5.258 3.566.544.095.958.57.958 1.142V6.34c0 .64-.52 1.16-1.16 1.16H3.41c-.64 0-1.16-.52-1.16-1.16V4.708c0-.554.388-1.017.908-1.132l.122-.02.087-.216C4.224 1.35 6.243 0 8.534 0zM9 1.525v2.786c0 .242-.224.439-.5.439-.245 0-.45-.155-.492-.36L8 4.31l-.001-2.777c-.348.044-.683.13-1 .253L7 3.28c0 .26-.224.471-.5.471-.245 0-.45-.167-.492-.386L6 3.279l-.001-.935c-.7.53-1.219 1.275-1.444 2.143l-.146.562H3.75V6h9.5v-.952l-.59.001-.147-.562c-.232-.897-.779-1.663-1.514-2.195L11 3.28c0 .26-.224.471-.5.471-.245 0-.45-.167-.492-.386L10 3.279V1.76c-.317-.117-.653-.197-1-.235z"/>
    </defs>
    <g fill="none" fill-rule="evenodd" transform="translate(3 2)">
        <mask id="prefix__b" fill="#fff">
            <use xlink:href="#prefix__a"/>
        </mask>
        <use fill="#757575" xlink:href="#prefix__a"/>
        <g fill="var(--color2)" mask="url(#prefix__b)">
            <path d="M0 0H144V144H0z" transform="translate(-67.75 -61)"/>
        </g>
    </g>
</svg>
